<?xml version="1.0" encoding="UTF-8" standalone="no"?>
<svg
   xmlns:dc="http://purl.org/dc/elements/1.1/"
   xmlns:cc="http://creativecommons.org/ns#"
   xmlns:rdf="http://www.w3.org/1999/02/22-rdf-syntax-ns#"
   xmlns:svg="http://www.w3.org/2000/svg"
   xmlns="http://www.w3.org/2000/svg"
   xmlns:sodipodi="http://sodipodi.sourceforge.net/DTD/sodipodi-0.dtd"
   xmlns:inkscape="http://www.inkscape.org/namespaces/inkscape"
   id="Layer_1"
   enable-background="new 0 0 512 512"
   height="429.79926"
   viewBox="0 0 512 429.79926"
   width="512"
   version="1.1"
   sodipodi:docname="mountain.svg"
   inkscape:version="1.0.1 (3bc2e813f5, 2020-09-07)">
  <metadata
     id="metadata439">
    <rdf:RDF>
      <cc:Work
         rdf:about="">
        <dc:format>image/svg+xml</dc:format>
        <dc:type
           rdf:resource="http://purl.org/dc/dcmitype/StillImage" />
      </cc:Work>
    </rdf:RDF>
  </metadata>
  <defs
     id="defs437" />
  <sodipodi:namedview
     pagecolor="#ffffff"
     bordercolor="#666666"
     borderopacity="1"
     objecttolerance="10"
     gridtolerance="10"
     guidetolerance="10"
     inkscape:pageopacity="0"
     inkscape:pageshadow="2"
     inkscape:window-width="1920"
     inkscape:window-height="1016"
     id="namedview435"
     showgrid="false"
     inkscape:zoom="1.671875"
     inkscape:cx="256"
     inkscape:cy="95.273082"
     inkscape:window-x="0"
     inkscape:window-y="27"
     inkscape:window-maximized="1"
     inkscape:current-layer="Layer_1" />
  <g
     id="g432"
     transform="translate(0,-41.10075)">
    <g
       clip-rule="evenodd"
       fill-rule="evenodd"
       id="g424">
      <path
         d="m 155.942,152.354 c 15.817,15.817 36.394,15.202 54.054,-2.457 17.66,-17.66 31.755,-31.756 31.755,-31.756 L 180.553,56.943 c -7.778,-7.778 -20.506,-7.778 -28.284,0 l -88.899,88.9 c 15.326,15.327 33.759,21.1 47.733,7.126 13.973,-13.975 29.022,-16.432 44.839,-0.615 z"
         fill="#faf7f6"
         id="path406" />
      <path
         d="m 372.731,66.735 -91.193,91.193 -20.251,20.251 c 18.714,18.714 39.151,24.151 56.214,7.089 17.063,-17.063 35.438,-20.062 54.75,-0.75 19.313,19.313 44.437,18.562 66,-3 21.563,-21.563 38.774,-38.774 38.774,-38.774 L 401.016,66.735 c -7.779,-7.778 -20.507,-7.779 -28.285,0 z"
         fill="#faf7f6"
         id="path408" />
      <path
         d="m 367.625,333.857 c -27.538,0.024 -54.049,3.252 -80,8.28 -13.462,2.608 -26.774,5.701 -40.001,9.082 -20.12,5.143 -40.043,10.953 -60,16.739 C 130.494,384.524 73.087,400.901 10,400.901 V 460.9 h 492 c 0,-33.333 0,-66.667 0,-100 -11.686,-4.772 -23.136,-8.821 -34.373,-12.216 -20.671,-6.245 -40.622,-10.28 -60,-12.54 -13.6,-1.587 -26.917,-2.299 -40.002,-2.287 z"
         fill="#f5eeec"
         id="path410" />
      <path
         d="m 407.627,300.236 v 35.907 c 19.378,2.26 39.33,6.295 60,12.54 v -48.447 l -30,-29.687 z"
         fill="#c68a86"
         id="path412" />
      <path
         d="m 367.625,333.858 v -52.779 l -40,-39.582 -40,39.582 v 61.058 c 25.952,-5.028 52.462,-8.256 80,-8.279 z"
         fill="#ddb9b6"
         id="path414" />
      <path
         d="m 247.624,351.22 v -30.983 l -30,-29.687 -30,29.687 v 47.721 c 19.957,-5.786 39.88,-11.596 60,-16.738 z"
         fill="#c68a86"
         id="path416" />
      <path
         d="m 187.624,320.237 30,-29.687 30,29.687 v 30.982 c 13.227,-3.381 26.539,-6.473 40.001,-9.082 v -61.058 l 40,-39.582 40,39.582 v 52.777 c 13.085,-0.011 26.402,0.701 40.001,2.287 v -35.907 l 30,-29.687 30,29.687 v 48.447 c 11.237,3.395 22.687,7.444 34.373,12.216 V 167.72 l -24.976,-24.976 c 0,0 -17.211,17.211 -38.774,38.774 -21.563,21.563 -46.687,22.313 -66,3 -19.312,-19.313 -37.687,-16.313 -54.75,0.75 -17.063,17.063 -37.5,11.625 -56.214,-7.089 l -139.655,139.657 20.994,20.775 v 42.022 c 15.083,-4.019 30.051,-8.34 44.999,-12.675 v -47.721 z"
         fill="#cff5fd"
         id="path418" />
      <path
         d="M 121.63,317.836 261.286,178.18 281.537,157.929 241.75,118.142 c 0,0 -14.096,14.096 -31.755,31.756 -17.66,17.66 -38.237,18.274 -54.054,2.457 -15.817,-15.817 -30.866,-13.36 -44.84,0.614 -13.974,13.974 -32.406,8.201 -47.733,-7.126 L 10,199.212 v 201.689 c 17.96,0 35.46,-1.327 52.624,-3.608 v -58.681 l 40,-39.582 z"
         fill="#99ebfa"
         id="path420" />
      <path
         d="m 121.63,317.836 -19.006,-18.807 -40,39.582 v 58.681 c 27.351,-3.635 53.849,-9.692 80,-16.659 v -42.022 z"
         fill="#ddb9b6"
         id="path422" />
    </g>
    <g
       id="g430">
      <path
         d="M 509.071,160.648 408.087,59.664 c -5.651,-5.65 -13.185,-8.763 -21.214,-8.763 -8.028,0 -15.562,3.112 -21.213,8.763 l -84.122,84.122 -93.915,-93.914 c -11.696,-11.696 -30.729,-11.694 -42.426,0 L 2.929,192.14 C 1.054,194.016 0,196.559 0,199.211 v 201.689 60 c 0,5.522 4.478,10 10,10 h 492 c 5.522,0 10,-4.478 10,-10 v -100 -193.181 c 0,-2.652 -1.054,-5.195 -2.929,-7.071 z M 379.803,73.806 c 3.899,-3.898 10.244,-3.897 14.142,0 l 68.938,68.938 -31.703,31.703 c -17.431,17.434 -36.332,18.525 -51.857,3 -21.973,-21.971 -46.437,-21.705 -68.893,0.75 -3.813,3.813 -14.729,14.716 -34.558,-0.459 z M 159.339,64.014 c 3.9,-3.897 10.244,-3.899 14.143,0 l 54.127,54.127 -24.685,24.685 c -6.819,6.819 -14.101,10.575 -21.058,10.861 -6.652,0.277 -13.003,-2.554 -18.853,-8.404 -9.693,-9.692 -20.032,-14.335 -30.694,-13.78 -9.718,0.498 -19.235,5.342 -28.288,14.395 -8.366,8.368 -18.37,4.697 -25.946,-0.628 z m -95.543,95.544 c 19.193,14.94 39.544,15.315 54.378,0.482 5.444,-5.445 10.549,-8.326 15.169,-8.563 4.771,-0.265 10.008,2.429 15.528,7.949 9.572,9.571 20.705,14.333 32.068,14.333 12.342,0 24.954,-5.617 36.127,-16.79 l 24.685,-24.685 25.645,25.645 -52.091,52.09 c -3.905,3.905 -3.905,10.237 0,14.143 3.906,3.906 10.238,3.906 14.143,0 l 32.207,-32.207 c 11.127,8.987 22.531,13.527 33.379,13.525 10.646,-10e-4 20.759,-4.36 29.538,-13.14 14.492,-14.494 26.637,-14.722 40.607,-0.75 11.214,11.213 24.264,16.79 37.594,16.79 14.524,0 29.381,-6.622 42.549,-19.79 L 477.025,156.887 492,171.862 V 346.3 c -3.338,-1.208 -8.727,-3.128 -14.373,-4.954 v -41.11 c 0,-2.67 -1.068,-5.229 -2.966,-7.108 l -30,-29.688 c -3.896,-3.855 -10.172,-3.855 -14.068,0 l -30,29.688 c -1.897,1.879 -2.966,4.438 -2.966,7.108 v 24.918 c -1.99,-0.025 0.456,-0.318 -20.002,-1.096 v -42.98 c 0,-2.67 -1.068,-5.229 -2.966,-7.108 l -40,-39.582 c -3.896,-3.855 -10.172,-3.855 -14.068,0 l -40,39.582 c -1.897,1.879 -2.966,4.438 -2.966,7.108 v 52.907 c -1.954,0.47 -0.966,0.024 -20.001,4.474 v -18.224 c 0,-2.67 -1.068,-5.229 -2.966,-7.108 l -30,-29.687 c -3.896,-3.855 -10.172,-3.855 -14.068,0 l -30,29.687 c -1.897,1.879 -2.966,4.438 -2.966,7.108 v 40.206 c -6.336,1.796 -2.582,0.827 -24.999,7.098 V 338.61 c 0,-2.67 -1.068,-5.229 -2.966,-7.108 L 135.81,317.798 165.808,287.8 c 3.905,-3.905 3.905,-10.237 0,-14.143 -3.906,-3.904 -10.236,-3.904 -14.143,0 l -30.072,30.072 -11.934,-11.81 c -3.896,-3.855 -10.172,-3.855 -14.068,0 l -40,39.582 c -1.897,1.879 -2.966,4.438 -2.966,7.108 v 49.8 C 50.29,388.363 52.277,389.313 20,390.747 V 203.354 Z m 63.769,214.634 c -0.31,0.276 -38.136,9.225 -54.94,11.499 v -42.907 l 30,-29.687 30,29.687 v 30.117 c -1.23,0.314 0.424,-0.102 -5.06,1.291 z m 110.059,-30.696 c -2.484,0.694 -10.297,2.579 -40,11.154 v -30.24 l 20,-19.791 20,19.791 z M 357.625,324.08 c -17.02,0.408 -39.207,2.522 -60,6.12 v -44.947 l 30,-29.687 30,29.687 z m 100.002,11.417 c -12.175,-3.19 -25.701,-6.067 -40,-8.088 V 304.41 l 20,-19.792 20,19.792 z M 492,450.9 H 20 v -40.133 c 22.856,-0.607 45.031,-3.256 66.686,-7.156 36.669,-6.604 71.845,-16.803 106.319,-26.801 17.907,-5.194 35.63,-10.334 53.368,-14.958 76.323,-19.897 152.915,-30.237 245.627,5.826 z"
         id="path426" />
      <path
         d="m 190.559,258.908 c 5.522,0 10,-4.478 10,-10 0,-5.522 -4.478,-10 -10,-10 h -0.008 c -5.522,0 -9.996,4.478 -9.996,10 0,5.522 4.481,10 10.004,10 z"
         id="path428" />
    </g>
  </g>
</svg>
