<svg x="0" y="0" width="450" height="500" viewBox="0 0 656.25 729.1666666666666" xmlns="http://www.w3.org/2000/svg" xmlns:xlink="http://www.w3.org/1999/xlink" xmlns:fi="http://pattern.flaticon.com/"><rect x="0px" y="0px" width="100%" height="100%" opacity="0" fill="#ffffff"/><defs><path d="M33.526,19.58l-8.045,2.153l-6.404-3.697l6.404-3.698l8.045,2.155c0.045,0.013,0.091,0.018,0.136,0.018   c0.23,0,0.44-0.153,0.501-0.387c0.074-0.278-0.09-0.563-0.368-0.638l-7.038-1.885l6.708-3.874c0.248-0.144,0.333-0.462,0.19-0.711   c-0.146-0.25-0.464-0.334-0.712-0.19l-6.705,3.873l1.886-7.037c0.073-0.278-0.091-0.563-0.368-0.638   c-0.277-0.073-0.562,0.09-0.638,0.369l-2.155,8.042l-6.404,3.698V9.739l5.887-5.889c0.204-0.203,0.204-0.533,0-0.737   c-0.202-0.203-0.533-0.203-0.736,0l-5.151,5.153V0.521C18.558,0.234,18.324,0,18.037,0c-0.287,0-0.521,0.234-0.521,0.521v7.745   l-5.151-5.153c-0.204-0.203-0.534-0.203-0.737,0c-0.203,0.204-0.203,0.534,0,0.737l5.888,5.889v7.396l-6.405-3.698L8.956,5.394   C8.88,5.116,8.596,4.952,8.318,5.025C8.04,5.099,7.875,5.385,7.949,5.663l1.885,7.037L3.128,8.826   C2.88,8.683,2.561,8.767,2.417,9.017c-0.144,0.249-0.058,0.568,0.19,0.711l6.708,3.874l-7.039,1.885   C2,15.561,1.834,15.847,1.909,16.124c0.062,0.233,0.272,0.387,0.502,0.387c0.045,0,0.09-0.005,0.135-0.018l8.045-2.155l6.404,3.698   l-6.403,3.697l-8.045-2.154c-0.275-0.071-0.563,0.091-0.637,0.368C1.835,20.225,2,20.51,2.278,20.585l7.039,1.884l-6.708,3.874   c-0.249,0.145-0.334,0.462-0.19,0.712c0.097,0.167,0.272,0.261,0.452,0.261c0.088,0,0.178-0.021,0.26-0.069l6.708-3.874   L7.952,30.41c-0.074,0.278,0.091,0.563,0.369,0.637c0.045,0.013,0.091,0.019,0.136,0.019c0.229,0,0.439-0.153,0.502-0.387   l2.155-8.042l6.404-3.699v7.396l-5.887,5.89c-0.204,0.202-0.204,0.533,0,0.737c0.203,0.201,0.533,0.201,0.736,0l5.151-5.153v7.746   c0,0.286,0.233,0.521,0.521,0.521c0.287,0,0.521-0.234,0.521-0.521v-7.746l5.15,5.153c0.103,0.102,0.236,0.151,0.369,0.151   c0.135,0,0.268-0.052,0.368-0.151c0.204-0.204,0.204-0.535,0-0.737l-5.89-5.89v-7.394l6.403,3.697l2.155,8.044   c0.062,0.232,0.273,0.385,0.502,0.385c0.045,0,0.09-0.004,0.136-0.017c0.278-0.075,0.442-0.36,0.368-0.639l-1.888-7.035   l6.708,3.872c0.083,0.049,0.172,0.071,0.261,0.071c0.18,0,0.354-0.095,0.452-0.261c0.144-0.25,0.059-0.567-0.19-0.713l-6.708-3.873   l7.038-1.886c0.279-0.073,0.443-0.36,0.368-0.637C34.09,19.668,33.806,19.505,33.526,19.58z" transform="matrix(1.6632938385009766 0 0 1.6632938385009766 76 79)" id="L1_3" fill="#34b9f5"/><path d="M32.186,18.794l-7.726,2.067l-2.463-1.422l2.627-0.703c0.269-0.071,0.426-0.346,0.354-0.612   c-0.072-0.266-0.345-0.426-0.612-0.354l-3.594,0.962l-2.458-1.418l2.46-1.42l3.592,0.963c0.044,0.012,0.087,0.017,0.13,0.017   c0.221,0,0.424-0.147,0.483-0.371c0.07-0.267-0.087-0.541-0.354-0.612l-2.627-0.704l2.465-1.422l7.724,2.069   c0.043,0.012,0.086,0.017,0.129,0.017c0.221,0,0.423-0.147,0.481-0.371c0.072-0.267-0.086-0.541-0.354-0.612l-6.757-1.81   l3.019-1.742l2.948,0.791c0.044,0.012,0.087,0.017,0.13,0.017c0.221,0,0.424-0.147,0.483-0.371c0.07-0.267-0.087-0.541-0.354-0.612   l-1.982-0.532l2.197-1.269c0.238-0.138,0.32-0.444,0.184-0.683c-0.139-0.24-0.444-0.321-0.684-0.183l-2.195,1.268l0.529-1.979   c0.072-0.267-0.086-0.541-0.354-0.612c-0.269-0.069-0.541,0.087-0.613,0.354l-0.789,2.947l-3.018,1.743l1.811-6.755   c0.071-0.267-0.086-0.541-0.354-0.612c-0.271-0.07-0.541,0.086-0.613,0.354l-2.068,7.721l-2.465,1.423l0.705-2.626   c0.07-0.267-0.088-0.541-0.354-0.612c-0.271-0.07-0.54,0.087-0.613,0.354l-0.963,3.592l-2.458,1.416V13.61l2.63-2.631   c0.195-0.195,0.195-0.512,0-0.707c-0.194-0.195-0.512-0.195-0.707,0l-1.923,1.924V9.349l5.651-5.653   c0.195-0.195,0.195-0.512,0-0.707c-0.194-0.195-0.512-0.195-0.707,0l-4.944,4.946V4.451l2.158-2.158   c0.194-0.195,0.194-0.512,0-0.707c-0.195-0.195-0.513-0.195-0.707,0l-1.451,1.451V0.5c0-0.276-0.226-0.5-0.5-0.5   c-0.275,0-0.5,0.224-0.5,0.5v2.536l-1.452-1.451c-0.195-0.195-0.512-0.195-0.707,0s-0.195,0.512,0,0.707l2.158,2.158v3.484   L11.87,2.988c-0.195-0.195-0.512-0.195-0.707,0c-0.195,0.195-0.195,0.512,0,0.707l5.652,5.653v2.847l-1.923-1.924   c-0.195-0.195-0.514-0.195-0.707,0c-0.195,0.195-0.195,0.512,0,0.707l2.63,2.631v2.839l-2.459-1.42l-0.963-3.592   c-0.072-0.267-0.345-0.424-0.613-0.354c-0.267,0.071-0.425,0.346-0.354,0.612l0.703,2.626l-2.465-1.423L8.597,5.176   C8.525,4.909,8.253,4.752,7.984,4.822C7.716,4.893,7.559,5.168,7.629,5.434l1.812,6.755l-3.02-1.743L5.633,7.499   c-0.07-0.268-0.342-0.424-0.611-0.354C4.754,7.216,4.597,7.491,4.667,7.757l0.531,1.981L3.003,8.47   C2.766,8.334,2.458,8.414,2.32,8.653C2.181,8.892,2.263,9.198,2.503,9.336l2.197,1.269l-1.984,0.532   c-0.267,0.071-0.424,0.346-0.354,0.612c0.061,0.224,0.264,0.371,0.481,0.371c0.045,0,0.088-0.005,0.132-0.017l2.948-0.791   l3.019,1.742l-6.757,1.81c-0.27,0.071-0.428,0.346-0.354,0.612c0.061,0.224,0.262,0.371,0.482,0.371   c0.043,0,0.086-0.005,0.129-0.017l7.724-2.069l2.463,1.422l-2.627,0.704c-0.267,0.071-0.424,0.346-0.354,0.612   c0.061,0.224,0.264,0.371,0.481,0.371c0.043,0,0.086-0.005,0.132-0.017l3.592-0.963l2.46,1.42l-2.459,1.42l-3.596-0.962   c-0.262-0.072-0.538,0.087-0.61,0.354c-0.07,0.267,0.087,0.541,0.354,0.61l2.627,0.705l-2.465,1.422l-7.723-2.067   c-0.261-0.069-0.54,0.086-0.611,0.354c-0.073,0.268,0.086,0.541,0.354,0.61l6.757,1.812l-3.02,1.742l-2.946-0.789   c-0.269-0.072-0.54,0.086-0.613,0.354c-0.07,0.268,0.087,0.541,0.354,0.611l1.982,0.531L2.5,25.287   c-0.237,0.139-0.319,0.443-0.183,0.684c0.093,0.16,0.261,0.25,0.433,0.25c0.086,0,0.172-0.021,0.25-0.066l2.197-1.27l-0.531,1.98   c-0.069,0.268,0.088,0.541,0.354,0.611c0.043,0.012,0.086,0.018,0.129,0.018c0.222,0,0.423-0.146,0.482-0.371l0.789-2.947   l3.018-1.74l-1.812,6.754c-0.069,0.269,0.088,0.541,0.354,0.611c0.044,0.014,0.087,0.018,0.13,0.018   c0.221,0,0.424-0.146,0.481-0.371l2.068-7.721l2.465-1.424l-0.703,2.627c-0.069,0.268,0.088,0.541,0.354,0.611   c0.043,0.012,0.086,0.018,0.129,0.018c0.222,0,0.423-0.146,0.483-0.371l0.962-3.592l2.459-1.42v2.838l-2.63,2.631   c-0.195,0.194-0.195,0.512,0,0.707c0.194,0.194,0.512,0.194,0.707,0l1.926-1.918v2.846l-5.652,5.654   c-0.195,0.194-0.195,0.512,0,0.707c0.195,0.194,0.512,0.194,0.707,0l4.945-4.947v3.484l-2.158,2.157   c-0.195,0.194-0.195,0.513,0,0.707s0.512,0.194,0.707,0l1.451-1.451v2.537c0,0.274,0.225,0.5,0.5,0.5c0.274,0,0.5-0.226,0.5-0.5   v-2.537l1.451,1.451c0.098,0.099,0.226,0.146,0.354,0.146c0.129,0,0.256-0.049,0.354-0.146c0.193-0.194,0.193-0.513,0-0.707   l-2.159-2.157v-3.484l4.944,4.947c0.099,0.098,0.227,0.146,0.354,0.146c0.129,0,0.256-0.05,0.354-0.146   c0.195-0.195,0.195-0.513,0-0.707l-5.651-5.654v-2.846l1.923,1.924c0.099,0.098,0.226,0.146,0.354,0.146   c0.127,0,0.257-0.049,0.354-0.146c0.195-0.195,0.195-0.512,0-0.707l-2.631-2.631v-2.84l2.459,1.42l0.962,3.592   c0.062,0.225,0.263,0.371,0.482,0.371c0.041,0,0.087-0.004,0.13-0.017c0.268-0.071,0.426-0.347,0.354-0.612l-0.703-2.625   l2.463,1.422l2.068,7.723c0.061,0.223,0.264,0.369,0.483,0.369c0.043,0,0.086-0.004,0.13-0.016   c0.268-0.072,0.425-0.347,0.354-0.613l-1.812-6.756l3.021,1.744l0.789,2.946c0.062,0.224,0.262,0.371,0.482,0.371   c0.042,0,0.086-0.006,0.129-0.019c0.268-0.069,0.426-0.346,0.354-0.61l-0.529-1.981l2.195,1.27c0.08,0.045,0.166,0.066,0.25,0.066   c0.172,0,0.342-0.088,0.435-0.25c0.139-0.238,0.057-0.545-0.185-0.683l-2.195-1.271l1.98-0.531c0.268-0.069,0.426-0.346,0.354-0.61   c-0.072-0.269-0.344-0.426-0.613-0.354l-2.946,0.791l-3.02-1.744l6.757-1.809c0.269-0.072,0.427-0.347,0.354-0.613   C32.726,18.882,32.452,18.725,32.186,18.794z" transform="matrix(1.5188862085342407 0.9113317131996155 -0.9113317131996155 1.5188862085342407 260.1944274902344 230.8569793701172)" id="L1_4" fill="#34b9f5"/></defs><g fi:class="KUsePattern" opacity="0.5"><pattern id="pattern_L1_3" width="350" height="350" patternUnits="userSpaceOnUse"><use xlink:href="#L1_3" x="-350" y="-350"/><use xlink:href="#L1_3" x="0" y="-350"/><use xlink:href="#L1_3" x="350" y="-350"/><use xlink:href="#L1_3" x="-350" y="0"/><use xlink:href="#L1_3" x="0" y="0"/><use xlink:href="#L1_3" x="350" y="0"/><use xlink:href="#L1_3" x="-350" y="350"/><use xlink:href="#L1_3" x="0" y="350"/><use xlink:href="#L1_3" x="350" y="350"/></pattern><rect x="0" y="0" width="100%" height="100%" fill="url(#pattern_L1_3)"/></g><g fi:class="KUsePattern" opacity="0.5"><pattern id="pattern_L1_4" width="350" height="350" patternUnits="userSpaceOnUse"><use xlink:href="#L1_4" x="-350" y="-350"/><use xlink:href="#L1_4" x="0" y="-350"/><use xlink:href="#L1_4" x="350" y="-350"/><use xlink:href="#L1_4" x="-350" y="0"/><use xlink:href="#L1_4" x="0" y="0"/><use xlink:href="#L1_4" x="350" y="0"/><use xlink:href="#L1_4" x="-350" y="350"/><use xlink:href="#L1_4" x="0" y="350"/><use xlink:href="#L1_4" x="350" y="350"/></pattern><rect x="0" y="0" width="100%" height="100%" fill="url(#pattern_L1_4)"/></g></svg>