<?xml version="1.0" encoding="UTF-8" standalone="no"?>
<svg
   xmlns:dc="http://purl.org/dc/elements/1.1/"
   xmlns:cc="http://creativecommons.org/ns#"
   xmlns:rdf="http://www.w3.org/1999/02/22-rdf-syntax-ns#"
   xmlns:svg="http://www.w3.org/2000/svg"
   xmlns="http://www.w3.org/2000/svg"
   xmlns:sodipodi="http://sodipodi.sourceforge.net/DTD/sodipodi-0.dtd"
   xmlns:inkscape="http://www.inkscape.org/namespaces/inkscape"
   id="Capa_1"
   enable-background="new 0 0 512 512"
   height="223.3595"
   viewBox="0 0 512 223.3595"
   width="512"
   version="1.1"
   sodipodi:docname="town2.svg"
   inkscape:version="1.0.1 (3bc2e813f5, 2020-09-07)">
  <metadata
     id="metadata272">
    <rdf:RDF>
      <cc:Work
         rdf:about="">
        <dc:format>image/svg+xml</dc:format>
        <dc:type
           rdf:resource="http://purl.org/dc/dcmitype/StillImage" />
        <dc:title></dc:title>
      </cc:Work>
    </rdf:RDF>
  </metadata>
  <defs
     id="defs270" />
  <sodipodi:namedview
     pagecolor="#ffffff"
     bordercolor="#666666"
     borderopacity="1"
     objecttolerance="10"
     gridtolerance="10"
     guidetolerance="10"
     inkscape:pageopacity="0"
     inkscape:pageshadow="2"
     inkscape:window-width="1920"
     inkscape:window-height="1016"
     id="namedview268"
     showgrid="false"
     inkscape:zoom="1.671875"
     inkscape:cx="289.24373"
     inkscape:cy="4.8878845"
     inkscape:window-x="0"
     inkscape:window-y="27"
     inkscape:window-maximized="1"
     inkscape:current-layer="Capa_1" />
  <g
     id="g265"
     transform="translate(0,-144.3205)">
    <g
       id="g251">
      <path
         d="M 504.5,360.18 V 247.917 l -52.729,-52.729 c -15.15,-15.15 -39.714,-15.15 -54.864,0 l -76.778,76.778 v 88.215 H 504.5 Z"
         fill="#edf4ff"
         id="path229" />
      <path
         d="m 347.561,163.161 c -15.151,-15.151 -39.714,-15.151 -54.864,0 l -76.778,76.778 V 360.18 h 256.516 l 4.008,-68.137 z"
         fill="#dbeaff"
         id="path231" />
      <path
         d="m 282.677,236.251 32.219,-83.952 c -8.115,1.101 -15.962,4.624 -22.199,10.862 l -76.778,76.778 V 360.18 h 56.113 v -66.485 c 0,-19.638 3.608,-39.11 10.645,-57.444 z"
         fill="#c3ddff"
         id="path233" />
      <path
         d="M 63.613,199.858 H 223.936 V 360.181 H 63.613 Z"
         fill="#9b959d"
         id="path235" />
      <path
         d="M 63.613,199.858 H 87.661 V 360.181 H 63.613 Z"
         fill="#857e87"
         transform="rotate(180,75.637,280.019)"
         id="path237" />
      <path
         d="m 416.32,263.987 -64.129,48.097 v 48.096 h 128.258 v -64.129 z"
         fill="#f6d190"
         id="path239" />
      <path
         d="m 416.323,290.875 53.374,26.687 c 3.321,1.661 7.037,2.538 10.747,2.538 h 0.008 v -24.048 l -64.129,-32.065 -64.129,32.065 v 64.129 h 16.032 v -35.349 c 0,-6.073 3.431,-11.624 8.862,-14.34 z"
         fill="#ecbd83"
         id="path241" />
      <path
         d="M 320.129,263.987 256,296.051 v 64.129 h 128.258 v -64.129 z"
         fill="#e2a975"
         id="path243" />
      <path
         d="m 320.129,290.875 53.374,26.687 c 3.321,1.661 7.037,2.538 10.747,2.538 h 0.008 V 296.052 L 320.129,263.987 256,296.051 v 64.129 h 24.667 v -38.442 c 0,-5.94 3.284,-11.393 8.534,-14.171 z"
         fill="#d19a6e"
         id="path245" />
      <path
         d="M 47.581,296.051 H 167.823 V 360.18 H 47.581 Z"
         fill="#857e87"
         id="path247" />
      <path
         d="M 23.532,296.051 H 47.58 V 360.18 H 23.532 Z"
         fill="#6f6571"
         transform="rotate(180,35.5565,328.116)"
         id="path249" />
    </g>
    <g
       id="g263">
      <path
         d="m 504.5,352.68 h -16.548 v -56.629 c 0,-2.841 -1.605,-5.438 -4.146,-6.708 l -64.129,-32.064 c -2.111,-1.056 -4.597,-1.056 -6.708,0 l -14.292,7.146 c -3.705,1.853 -5.207,6.357 -3.354,10.062 1.853,3.705 6.356,5.207 10.062,3.354 l 10.938,-5.469 56.629,28.314 v 51.994 h -81.193 v -56.629 c 0,-2.841 -1.605,-5.438 -4.146,-6.708 l -64.129,-32.064 c -2.111,-1.056 -4.597,-1.056 -6.708,0 l -64.129,32.064 c -2.541,1.271 -4.146,3.867 -4.146,6.708 V 352.68 H 231.437 V 235.029 L 298,168.464 c 12.202,-12.202 32.056,-12.202 44.258,0 l 60.746,60.745 c 2.929,2.929 7.678,2.929 10.606,0 2.929,-2.929 2.929,-7.678 0,-10.606 l -14.737,-14.737 3.337,-3.337 c 12.202,-12.202 32.056,-12.202 44.258,0 l 52.729,52.729 c 1.464,1.465 3.384,2.197 5.303,2.197 1.919,0 3.839,-0.732 5.303,-2.197 2.929,-2.929 2.929,-7.677 0,-10.606 l -52.729,-52.729 c -18.05,-18.051 -47.421,-18.05 -65.471,0 l -3.337,3.337 -35.402,-35.402 c -18.05,-18.05 -47.421,-18.05 -65.471,0 l -55.958,55.958 v -13.958 c 0,-4.142 -3.358,-7.5 -7.5,-7.5 H 63.613 c -4.142,0 -7.5,3.358 -7.5,7.5 v 88.693 H 23.532 c -4.142,0 -7.5,3.358 -7.5,7.5 V 352.68 H 7.5 c -4.142,0 -7.5,3.358 -7.5,7.5 0,4.142 3.358,7.5 7.5,7.5 h 497 c 4.142,0 7.5,-3.358 7.5,-7.5 0,-4.142 -3.358,-7.5 -7.5,-7.5 z m -241,-51.994 56.629,-28.314 56.629,28.314 v 51.994 h -49.129 v -32.581 c 0,-4.142 -3.358,-7.5 -7.5,-7.5 -4.142,0 -7.5,3.358 -7.5,7.5 V 352.68 H 263.5 Z m -47.064,-61.264 v 17.064 H 71.113 V 239.422 Z M 71.113,271.487 h 145.323 v 17.064 H 71.113 Z m 104.21,32.064 h 41.113 v 17.065 h -16.549 c -4.142,0 -7.5,3.358 -7.5,7.5 0,4.142 3.358,7.5 7.5,7.5 h 16.549 v 17.064 h -41.113 z m 41.113,-96.193 v 17.064 H 71.113 v -17.064 z m -56.113,96.193 v 17.065 H 31.032 V 303.551 Z M 31.032,335.616 H 160.323 V 352.68 H 31.032 Z"
         id="path253" />
      <path
         d="m 288.064,312.599 c -4.142,0 -7.5,3.358 -7.5,7.5 v 8.016 c 0,4.142 3.358,7.5 7.5,7.5 4.142,0 7.5,-3.358 7.5,-7.5 v -8.016 c 0,-4.142 -3.357,-7.5 -7.5,-7.5 z"
         id="path255" />
      <path
         d="m 352.193,335.616 c 4.142,0 7.5,-3.358 7.5,-7.5 V 320.1 c 0,-4.142 -3.358,-7.5 -7.5,-7.5 -4.142,0 -7.5,3.358 -7.5,7.5 v 8.016 c 0,4.142 3.358,7.5 7.5,7.5 z"
         id="path257" />
      <path
         d="m 423.822,328.115 v -8.016 c 0,-4.142 -3.358,-7.5 -7.5,-7.5 -4.142,0 -7.5,3.358 -7.5,7.5 v 8.016 c 0,4.142 3.358,7.5 7.5,7.5 4.142,0 7.5,-3.358 7.5,-7.5 z"
         id="path259" />
      <path
         d="m 455.887,328.115 v -8.016 c 0,-4.142 -3.358,-7.5 -7.5,-7.5 -4.142,0 -7.5,3.358 -7.5,7.5 v 8.016 c 0,4.142 3.358,7.5 7.5,7.5 4.142,0 7.5,-3.358 7.5,-7.5 z"
         id="path261" />
    </g>
  </g>
</svg>
