<svg x="0" y="0" width="700" height="350" viewBox="0 0 700 350" xmlns="http://www.w3.org/2000/svg" xmlns:xlink="http://www.w3.org/1999/xlink" xmlns:fi="http://pattern.flaticon.com/"><rect x="0px" y="0px" width="100%" height="100%" opacity="0" fill="#fff4e8"/><defs><g transform="matrix(0.3506796658039093 0 0 0.3506796658039093 26.35041046142578 172.1014862060547)" id="L1_0"><g><g><path d="m222.905 407.461v80.473c0 9.15 7.417 16.567 16.567 16.567h33.133c9.15 0 16.567-7.417 16.567-16.567v-80.473z" fill="#be694f"/><path d="m265.984 407.461v80.473c0 9.15-7.417 16.567-16.567 16.567h23.188c9.149 0 16.567-7.417 16.567-16.567v-80.473z" fill="#934d36"/><g><path d="m164.922 305.7-44.52 101.761 36.81 10.912 19.72-7.79c8.824-3.486 18.72-3.022 27.179 1.275l48.207 24.486c2.341 1.189 5.107 1.198 7.456.024l49.225-24.612c8.465-4.233 18.336-4.643 27.123-1.128l50.252 20.101c6.88 2.752 13.635-4.223 10.665-11.011l-49.884-114.018v-32.7h-182.247z" fill="#49c470"/><path d="m397.037 419.716-49.882-114.016v-32.7h-23-159.247l.014 32.7-12.197 27.879 45.522-18.209c5.065-2.026 10.803-1.429 15.342 1.597l37.854 25.236c2.782 1.855 6.407 1.855 9.189 0l37.854-25.236c4.539-3.026 10.277-3.624 15.342-1.597l17.644 7.057 42.564 97.288c.936 2.139.905 4.295.21 6.161l12.125 4.85c6.881 2.752 13.636-4.222 10.666-11.01z" fill="#38ad63"/><path d="m296.621 156.6 80.652 145.309c3.782 6.814-3.083 14.605-10.319 11.711l-53.124-21.25c-5.065-2.026-10.803-1.429-15.342 1.597l-37.854 25.236c-2.782 1.855-6.407 1.855-9.189 0l-37.854-25.236c-4.539-3.026-10.277-3.623-15.342-1.597l-53.124 21.249c-7.236 2.894-14.101-4.897-10.319-11.711l80.651-145.308v-12.1h81.15z" fill="#49c470"/><path d="m377.272 301.909-80.651-145.309-.014-12.1h-22.854-58.296v12.1l-16.375 29.503c.004-.001.007-.002.011-.004l16.365-6.364c4.706-1.83 9.99-1.414 14.352 1.13l22.056 12.866c2.579 1.505 5.769 1.505 8.348 0l22.056-12.866c1.279-.746 2.643-1.286 4.043-1.664l68.107 122.706c1.303 2.347 1.342 4.81.538 6.912l11.997 4.799c7.235 2.896 14.099-4.895 10.317-11.709z" fill="#38ad63"/><path d="m265.66 70.671 57.067 79.894c4.784 6.698-2.071 15.518-9.743 12.535l-16.364-6.364c-4.706-1.83-9.99-1.414-14.352 1.13l-22.056 12.866c-2.579 1.504-5.768 1.504-8.348 0l-22.056-12.866c-4.362-2.544-9.646-2.961-14.352-1.13l-16.365 6.364c-7.672 2.984-14.527-5.836-9.743-12.535l57.125-79.975v-10.59h19.171z" fill="#49c470"/><path d="m322.728 150.565-57.068-79.894-.014-10.671h-19.171v10.59l-1.9 2.66 55.225 77.315c1.82 2.548 1.952 5.401 1 7.796l12.185 4.738c7.672 2.984 14.527-5.836 9.743-12.534z" fill="#38ad63"/></g><path d="m261.986 11.226 6.259 12.682c.487.986 1.428 1.67 2.516 1.828l13.995 2.034c5.482.797 7.671 7.534 3.704 11.4l-10.127 9.872c-.788.768-1.147 1.874-.961 2.958l2.391 13.939c.936 5.46-4.794 9.624-9.698 7.046l-12.518-6.581c-.974-.512-2.137-.512-3.11 0l-12.518 6.581c-4.903 2.578-10.634-1.586-9.698-7.046l2.392-13.939c.186-1.084-.173-2.19-.961-2.958l-10.127-9.872c-3.967-3.867-1.778-10.604 3.704-11.4l13.995-2.034c1.088-.158 2.029-.842 2.516-1.828l6.259-12.682c2.452-4.968 9.535-4.968 11.987 0z" fill="#ffd45d"/><g><path d="m280.864 141.178c-2.835 0-5.671-.727-8.217-2.181l-16.633-9.502-16.633 9.502c-5.092 2.908-11.341 2.908-16.433 0l-18.1-10.303c-7.946-4.538-10.707-14.658-6.169-22.602 4.539-7.946 14.659-10.706 22.602-6.169l7.833 4.446c1.271.722 2.829.72 4.099-.006l14.586-8.332c5.092-2.908 11.341-2.908 16.433 0l14.581 8.329c1.272.727 2.833.727 4.106.002l7.787-4.44c7.944-4.537 18.064-1.777 22.602 6.169 4.538 7.945 1.777 18.064-6.169 22.602l-18.057 10.303c-2.547 1.455-5.383 2.182-8.218 2.182z" fill="#f6fafd"/><path d="m324.386 254.814c-2.161 0-4.321-.423-6.355-1.268l-26.225-10.894c-1.017-.422-2.16-.422-3.177 0l-26.226 10.894c-4.067 1.691-8.64 1.691-12.711 0l-26.224-10.893c-1.017-.423-2.161-.423-3.178 0l-26.225 10.893c-4.067 1.691-8.643 1.691-12.71 0l-16.199-6.735c-8.45-3.51-12.454-13.205-8.944-21.654 3.509-8.449 13.206-12.457 21.654-8.944l8.254 3.434c1.018.423 2.162.424 3.18.001l26.223-10.894c4.069-1.691 8.644-1.691 12.711 0l26.225 10.894c1.017.423 2.161.423 3.178 0l26.226-10.894c4.17-1.732 8.796-1.664 12.832.051 1.439.598 16.506 6.857 26.109 10.845 1.017.423 2.155.42 3.172-.003l8.185-3.401c8.453-3.512 18.145.495 21.655 8.943 3.511 8.449-.493 18.145-8.943 21.655l-16.13 6.703c-2.035.844-4.196 1.267-6.357 1.267z" fill="#f6fafd"/><path d="m289.41 387.347c-2.206 0-4.414-.441-6.486-1.323l-25.257-10.745c-1.036-.441-2.207-.441-3.243 0l-25.256 10.745c-4.143 1.762-8.826 1.764-12.971 0l-25.257-10.745c-1.036-.441-2.207-.441-3.243 0l-25.256 10.745c-4.144 1.763-8.827 1.763-12.971 0l-16.7-7.092c-8.419-3.581-12.341-13.31-8.759-21.73 3.581-8.42 13.312-12.342 21.73-8.759l8.595 3.646c1.035.439 2.204.439 3.239-.002l25.258-10.746c4.143-1.763 8.826-1.763 12.971 0l25.257 10.745c1.036.441 2.207.441 3.243 0l25.256-10.745c4.143-1.763 8.826-1.763 12.971 0l25.257 10.745c1.036.441 2.207.441 3.243 0l25.257-10.745c4.144-1.763 8.827-1.763 12.971 0l25.256 10.745c1.036.441 2.207.441 3.243 0l8.564-3.643c8.658-3.689 18.715.573 22.027 9.505 3.101 8.363-1.279 17.675-9.487 21.167l-16.24 6.909c-4.144 1.763-8.827 1.763-12.971 0l-25.256-10.745c-1.036-.441-2.207-.441-3.243 0l-25.257 10.745c-2.071.882-4.278 1.323-6.485 1.323z" fill="#f6fafd"/><g fill="#ccccff"><path d="m313.307 106.092c-4.538-7.946-14.659-10.706-22.602-6.169l-3.68 2.098c1.27 1.147 2.388 2.504 3.282 4.071 4.538 7.945 1.777 18.064-6.169 22.602l-14.772 8.429 3.282 1.874c2.546 1.454 5.381 2.181 8.217 2.181 2.835 0 5.67-.727 8.217-2.181l18.057-10.303c7.944-4.538 10.706-14.658 6.168-22.602z"/><path d="m355.815 225.188c-3.51-8.448-13.202-12.454-21.655-8.943l-6.092 2.532c2.018 1.665 3.674 3.827 4.747 6.411 3.511 8.449-.494 18.145-8.943 21.655l-10.986 4.566 5.146 2.137c2.034.846 4.194 1.268 6.355 1.268s4.322-.423 6.356-1.268l16.13-6.703c8.448-3.51 12.452-13.206 8.942-21.655z"/><path d="m388.349 357.949c-3.312-8.931-13.369-13.194-22.026-9.505l-5.915 2.516c2.153 1.79 3.889 4.151 4.942 6.988 3.101 8.363-1.279 17.675-9.487 21.167l-11.225 4.775 5.014 2.133c4.144 1.763 8.827 1.763 12.971 0l16.24-6.908c8.207-3.491 12.587-12.802 9.486-21.166z"/></g></g><path d="m288.461 39.17c3.967-3.867 1.778-10.604-3.704-11.4l-13.995-2.034c-1.088-.158-2.029-.842-2.516-1.828l-6.259-12.682c-2.452-4.968-9.535-4.968-11.987 0l-5.513 11.172.745 1.51c.487.986 1.428 1.67 2.516 1.828l13.995 2.034c5.482.797 7.671 7.534 3.704 11.4l-10.127 9.872c-.788.768-1.147 1.874-.961 2.958l2.391 13.939c.01.059.009.116.017.174.269.064.531.159.781.291l12.518 6.581c4.903 2.578 10.634-1.586 9.698-7.046l-2.391-13.939c-.186-1.084.174-2.19.961-2.958z" fill="#ffb229"/></g><g><path d="m82.057 380.25v-8.283c0-18.299 14.834-33.133 33.133-33.133h8.28c9.149 0 16.567 7.417 16.567 16.567s-7.417 16.567-16.567 16.567v8.283h-41.413z" fill="#f6fafd"/><path d="m82.05 380.25v-8.283c0-18.299-14.834-33.133-33.133-33.133h-8.28c-9.15 0-16.567 7.417-16.567 16.567s7.417 16.567 16.567 16.567v8.283h41.413z" fill="#f6fafd"/><path d="m123.47 338.833h-8.28c-3.002 0-5.908.406-8.674 1.155 6.155 2.417 10.52 8.399 10.52 15.412 0 9.15-7.417 16.567-16.567 16.567v8.283h23v-8.283c9.15 0 16.567-7.417 16.567-16.567.001-9.15-7.416-16.567-16.566-16.567z" fill="#ccccff"/><g><g><path d="m140.317 504.5h-41.697l-16.567-8.917-16.565 8.917h-41.705c-4.418 0-8-3.582-8-8v-97.636h132.533v97.636c.001 4.418-3.581 8-7.999 8z" fill="#e0343f"/><path d="m15.783 398.864v29.236h109.533v68.4c0 4.418-3.582 8-8 8h23c4.418 0 8-3.582 8-8v-97.636z" fill="#b53a4c"/><path d="m65.487 398.864h33.133v105.636h-33.133z" fill="#f6fafd"/><path d="m98.624 398.864h-.004-33.13v29.236h10.13v76.4h23v-76.4z" fill="#ccccff"/></g><path d="m148.6 405.1h-41.697l-24.85-3.733-24.85 3.733h-41.703c-4.418 0-8-3.582-8-8v-17.133c0-4.418 3.582-8 8-8h41.703l24.85 4.983 24.85-4.983h41.697c4.418 0 8 3.582 8 8v17.133c0 4.419-3.582 8-8 8z" fill="#e0343f"/><path d="m57.204 371.967h49.7v33.133h-49.7z" fill="#f6fafd"/><path d="m83.904 371.966h23v33.134h-23z" fill="#ccccff"/><path d="m148.6 371.967h-23.051c4.418 0 8 3.582 8 8v17.133c0 4.418-3.582 8-8 8h23.051c4.418 0 8-3.582 8-8v-17.133c0-4.418-3.582-8-8-8z" fill="#b53a4c"/></g></g><g><path d="m421.678 446.517v-8.283c0-18.299 14.834-33.133 33.133-33.133h8.28c9.15 0 16.567 7.417 16.567 16.567s-7.417 16.567-16.567 16.567v8.283h-41.413z" fill="#f6fafd"/><path d="m421.67 446.517v-8.283c0-18.299-14.834-33.133-33.133-33.133h-8.28c-9.15 0-16.567 7.417-16.567 16.567s7.417 16.567 16.567 16.567v8.283h41.413z" fill="#f6fafd"/><path d="m463.091 405.1h-8.28c-3.002 0-5.908.406-8.674 1.155 6.155 2.417 10.52 8.399 10.52 15.412 0 9.15-7.417 16.567-16.567 16.567v8.283h23v-8.283c9.15 0 16.567-7.417 16.567-16.567s-7.417-16.567-16.566-16.567z" fill="#ccccff"/><g><g><path d="m488.217 504.5h-49.976l-16.567-8.917-16.565 8.917h-49.991c-4.418 0-8-3.582-8-8v-31.369h149.1v31.369c-.001 4.418-3.583 8-8.001 8z" fill="#e0343f"/><path d="m347.117 465.131v29.236h126.1v2.133c0 4.418-3.582 8-8 8h23c4.418 0 8-3.582 8-8v-31.369z" fill="#b53a4c"/><path d="m405.107 465.131h33.133v39.369h-33.133z" fill="#f6fafd"/><path d="m438.245 465.131h-.004-33.13v29.236h10.13v10.133h23v-10.133z" fill="#ccccff"/></g><g><path d="m496.5 471.367h-49.977l-24.85-3.733-24.85 3.733h-49.99c-4.418 0-8-3.582-8-8v-17.133c0-4.418 3.582-8 8-8h49.99l24.85 4.983 24.85-4.983h49.977c4.418 0 8 3.582 8 8v17.133c0 4.418-3.582 8-8 8z" fill="#e0343f"/><path d="m396.824 438.234h49.7v33.133h-49.7z" fill="#f6fafd"/><path d="m423.524 438.233h23v33.134h-23z" fill="#ccccff"/><path d="m496.5 438.234h-23.051c4.418 0 8 3.582 8 8v17.133c0 4.418-3.582 8-8 8h23.051c4.418 0 8-3.582 8-8v-17.133c0-4.419-3.582-8-8-8z" fill="#b53a4c"/></g></g></g></g><path d="m496.5 430.733h-11.129c1.144-2.8 1.779-5.86 1.779-9.067 0-13.27-10.797-24.066-24.067-24.066h-8.279c-13.665 0-25.768 6.788-33.137 17.161-6.026-8.482-15.216-14.557-25.84-16.492l-7.238-16.544c7.337-6.49 10.304-16.875 6.779-26.384-2.316-6.245-6.954-11.132-13.06-13.759-3.818-1.643-7.994-2.245-12.075-1.812l-8.886-20.31 2.807 1.123c6.279 2.514 13.23.857 17.703-4.22 4.473-5.076 5.241-12.178 1.958-18.094l-27.15-48.916c2.607-2.363 4.698-5.274 6.081-8.622 2.454-5.942 2.447-12.484-.02-18.42-4.724-11.374-17.22-17.207-28.793-13.915l-20.813-37.497c5.731 1.075 11.619-1.078 15.314-5.834 4.318-5.555 4.472-13.134.382-18.86l-11.624-16.274c2.279-2.664 3.982-5.804 4.933-9.287 1.692-6.202.869-12.691-2.319-18.273-6.008-10.52-18.805-14.783-29.755-10.439l-9.235-12.929c.23-.148.459-.298.683-.46 4.4-3.197 6.563-8.513 5.643-13.873l-2.021-11.785 8.561-8.345c3.896-3.796 5.271-9.367 3.591-14.54-1.681-5.173-6.068-8.872-11.451-9.654l-11.832-1.72-5.291-10.721c-2.408-4.875-7.282-7.905-12.72-7.905-5.439 0-10.313 3.03-12.719 7.906l-5.292 10.722-11.832 1.719c-5.382.782-9.77 4.48-11.45 9.653-1.681 5.173-.306 10.744 3.589 14.54l8.563 8.346-2.02 11.784c-.92 5.36 1.242 10.676 5.643 13.873.244.177.495.339.746.499l-9.229 12.92c-10.967-4.389-23.804-.132-29.825 10.409-3.188 5.582-4.012 12.072-2.319 18.273.957 3.507 2.677 6.667 4.983 9.344l-11.583 16.217c-4.089 5.726-3.936 13.305.383 18.86 3.696 4.755 9.582 6.909 15.314 5.834l-20.803 37.48c-5.208-1.505-10.732-1.212-15.816.889-5.942 2.455-10.572 7.076-13.037 13.011-2.467 5.937-2.474 12.479-.02 18.42 1.391 3.367 3.498 6.293 6.126 8.662l-5.203 9.374c-2.01 3.621-.704 8.187 2.918 10.197 1.153.64 2.401.944 3.633.944 2.637 0 5.194-1.393 6.564-3.862l5.344-9.629 9.825 4.085c5.868 2.44 12.601 2.44 18.467.001l24.937-10.358 24.936 10.358c5.869 2.438 12.6 2.438 18.465 0l24.938-10.358 24.936 10.358c2.942 1.223 6.049 1.842 9.233 1.842 3.185 0 6.291-.62 9.233-1.842l9.812-4.078 27.283 49.154c.113.204.269.483-.097.898-.364.414-.66.296-.879.21l-53.124-21.25c-7.359-2.945-15.692-2.076-22.287 2.321l-37.854 25.236c-.264.176-.606.176-.869 0l-37.854-25.236c-6.597-4.398-14.928-5.265-22.287-2.321l-53.124 21.25c-.219.087-.514.204-.879-.21-.365-.415-.21-.694-.097-.898l6.613-11.916c2.01-3.622.703-8.188-2.918-10.197-3.623-2.011-8.186-.704-10.197 2.918l-6.613 11.916c-3.283 5.916-2.515 13.018 1.958 18.094 4.472 5.076 11.423 6.731 17.703 4.22l2.807-1.123-8.884 20.306c-.029-.003-.058-.008-.087-.011-4.417-5.149-10.964-8.421-18.264-8.421h-8.28c-13.665 0-25.767 6.788-33.137 17.162-7.369-10.374-19.471-17.162-33.137-17.162h-8.28c-13.271 0-24.066 10.796-24.066 24.066 0 3.207.635 6.267 1.779 9.067h-2.848c-8.547 0-15.5 6.953-15.5 15.5v17.134c0 5.941 3.364 11.105 8.283 13.706v38.061c0 4.142 3.357 7.5 7.5 7.5s7.5-3.358 7.5-7.5v-36.267h33.917.783v84.4h-34.2c-.275 0-.5-.224-.5-.5v-17.633c0-4.142-3.357-7.5-7.5-7.5s-7.5 3.358-7.5 7.5v17.633c0 8.547 6.953 15.5 15.5 15.5h116.533c8.547 0 15.5-6.953 15.5-15.5v-69.518l23.856-9.425c6.822-2.694 14.485-2.336 21.026.987l14.691 7.462v61.927c0 13.271 10.797 24.067 24.067 24.067h33.133c13.271 0 24.066-10.796 24.066-24.067v-61.631l15.679-7.839c6.543-3.272 14.191-3.589 20.984-.873l23.46 9.384c.293 1.296.689 2.552 1.182 3.76h-11.129c-8.547 0-15.5 6.953-15.5 15.5v17.133c0 5.942 3.364 11.106 8.284 13.707v19.426c0 8.547 6.953 15.5 15.5 15.5h133.1c8.547 0 15.5-6.953 15.5-15.5v-19.427c4.919-2.601 8.283-7.765 8.283-13.706v-17.133c.002-8.548-6.951-15.501-15.498-15.501zm-276.132-267.553c1.939-.236 3.912.152 5.646 1.164l22.057 12.866c2.453 1.431 5.203 2.146 7.953 2.146s5.5-.715 7.953-2.146l22.055-12.866c1.735-1.011 3.71-1.4 5.649-1.164l25.556 46.042c-8.197-3.405-16.605-6.898-17.623-7.321-5.915-2.513-12.71-2.539-18.643-.074l-24.938 10.359-24.936-10.359c-5.865-2.438-12.597-2.438-18.466 0l-17.825 7.405zm31.161-86.782 4.45-2.34 4.598 2.417 10.665 14.931-3.307-1.889c-7.36-4.204-16.507-4.205-23.873 0l-3.22 1.839zm-21.599-41.444 12.359-1.796c3.533-.514 6.585-2.732 8.162-5.93l5.527-11.199 5.528 11.201c1.58 3.199 4.632 5.415 8.162 5.928l12.358 1.796-8.944 8.718c-2.554 2.491-3.719 6.077-3.116 9.595l2.11 12.309-11.055-5.812c-1.579-.83-3.312-1.245-5.044-1.245s-3.466.415-5.046 1.245l-11.053 5.811 2.111-12.311c.602-3.516-.563-7.102-3.118-9.594zm-24.753 74.858c2.479-4.342 8.029-5.857 12.387-3.367l7.833 4.446c3.556 2.019 7.971 2.013 11.522-.016l14.583-8.332c2.776-1.584 6.223-1.583 8.995 0l14.58 8.329c3.558 2.033 7.982 2.035 11.541.005l7.792-4.442c4.342-2.48 9.891-.965 12.37 3.377 1.201 2.103 1.512 4.547.874 6.883-.624 2.285-2.084 4.193-4.112 5.398-.149.08-18.195 10.391-18.195 10.391-2.734 1.563-6.259 1.562-8.993 0l-16.634-9.502c-1.152-.659-2.435-.988-3.72-.988-1.284 0-2.567.329-3.72.988l-16.633 9.502c-2.775 1.584-6.221 1.584-9.004-.005 0 0-18.035-10.3-18.324-10.447-1.979-1.21-3.404-3.09-4.017-5.337-.637-2.336-.326-4.78.875-6.883zm-9.72 46.048c-.358-.462-.178-.713-.02-.936l11.654-16.315 12.123 6.9c7.362 4.205 16.511 4.205 23.871-.001l12.915-7.375 12.914 7.377c3.629 2.073 7.757 3.168 11.936 3.168 4.18 0 8.308-1.096 11.934-3.167l12.152-6.933 11.675 16.346c.159.223.34.475-.019.937-.359.463-.649.349-.902.249l-15.15-5.891c-.864-.532-1.826-.878-2.824-1.028-6.437-2.002-13.359-1.234-19.241 2.197l-22.056 12.866c-.242.143-.547.143-.789 0l-22.057-12.866c-5.879-3.43-12.801-4.198-19.238-2.198-.998.15-1.96.496-2.825 1.028l-15.15 5.892c-.255.1-.542.213-.903-.25zm132.393 90.76c-2.217.921-4.737.921-6.956-.001l-26.227-10.894c-2.881-1.196-6.051-1.194-8.93.001l-26.228 10.895c-2.24.932-4.711.932-6.955-.001l-26.224-10.893c-1.419-.589-2.942-.884-4.466-.884-1.523 0-3.047.294-4.467.884l-26.228 10.895c-2.209.919-4.741.919-6.95 0l-16.201-6.736c-2.237-.929-3.979-2.673-4.902-4.912-.925-2.238-.922-4.702.008-6.939.929-2.236 2.673-3.978 4.912-4.902 2.24-.925 4.702-.921 6.935.007l8.254 3.434c2.839 1.182 6.099 1.182 8.938.002l26.224-10.895c2.211-.918 4.745-.919 6.956.001l26.227 10.895c2.84 1.179 6.094 1.177 8.93-.001l26.226-10.895c2.236-.929 4.798-.919 7.076.05 1.438.598 16.508 6.857 26.11 10.846 2.878 1.195 6.048 1.194 8.928-.003l8.184-3.401c4.614-1.917 9.935.277 11.853 4.895.929 2.236.932 4.7.007 6.938-.924 2.238-2.665 3.983-4.902 4.912zm169.15 199.613v17.133c0 .276-.225.5-.5.5h-.283-42.2v-18.133h42.483c.275 0 .5.224.5.5zm-92.684 17.634v-18.133h34.7v18.133zm50.488-51.267h8.279c5 0 9.067 4.067 9.067 9.066s-4.067 9.067-9.067 9.067h-32.791c3.215-10.486 12.986-18.133 24.512-18.133zm-73.501-52.044c1.653 4.46-.765 9.69-5.392 11.659l-16.239 6.909c-2.256.96-4.842.96-7.098 0l-25.256-10.746c-2.896-1.232-6.22-1.233-9.116 0l-25.256 10.745c-2.259.962-4.844.96-7.099.001l-25.255-10.745c-2.897-1.233-6.221-1.234-9.118-.001l-25.255 10.746c-2.258.96-4.846.96-7.1 0l-25.257-10.746c-2.898-1.232-6.221-1.232-9.115 0l-20.899 8.892c-1.282-7.263-7.624-12.803-15.249-12.803h-2.845c.913-2.235 1.496-4.637 1.695-7.146l3.943 1.673c2.894 1.228 6.212 1.228 9.105-.004l25.26-10.747c2.255-.96 4.842-.959 7.097 0l25.26 10.746c2.895 1.231 6.215 1.231 9.113-.001l25.257-10.746c2.255-.96 4.842-.959 7.097 0l25.26 10.746c2.895 1.231 6.215 1.231 9.113-.001l25.256-10.745c2.256-.96 4.845-.96 7.099-.001l25.26 10.746c2.895 1.231 6.217 1.232 9.111-.001l8.569-3.645c2.3-.981 4.831-.973 7.129.016 2.3.993 4.05 2.839 4.925 5.199zm-282.686 37.044h-33.134-.783v-18.133h34.7v18.133zm15.783-18.133h34.2c.275 0 .5.224.5.5v17.133c0 .276-.225.5-.5.5h-.283-33.917zm86.619-80.134c2.772-1.108 5.91-.782 8.396.874l37.855 25.236c2.659 1.773 5.707 2.66 8.755 2.66s6.096-.887 8.755-2.66l37.854-25.236c2.485-1.658 5.623-1.983 8.397-.875l30.471 12.188 14.453 33.033-23.773-10.114c-5.986-2.547-12.854-2.547-18.843 0l-23.941 10.187-23.942-10.187c-5.99-2.548-12.857-2.548-18.844 0l-23.941 10.187-23.942-10.187c-5.988-2.548-12.856-2.548-18.843 0l-23.793 10.123 14.455-33.042zm-85.832 47h8.28c4.999 0 9.066 4.067 9.066 9.066 0 5-4.067 9.067-9.066 9.067h-32.792c3.216-10.485 12.986-18.133 24.512-18.133zm-83.621 9.067c0-4.999 4.067-9.066 9.066-9.066h8.28c11.525 0 21.296 7.647 24.511 18.133h-32.79c-4.999 0-9.067-4.068-9.067-9.067zm-15.783 42.2h-.283c-.275 0-.5-.224-.5-.5v-17.133c0-.276.225-.5.5-.5h34.2v18.133zm57.2 99.4v-84.4h18.134v84.4zm67.833-.5c0 .276-.225.5-.5.5h-34.199v-84.4h.783 33.916zm140.841-8.567c0 4.999-4.067 9.067-9.066 9.067h-33.133c-5 0-9.067-4.067-9.067-9.067v-9.066h25.634c4.143 0 7.5-3.358 7.5-7.5s-3.357-7.5-7.5-7.5h-25.634v-30.242l18.516 9.405c2.236 1.136 4.691 1.704 7.148 1.704 2.423 0 4.846-.553 7.058-1.659l18.545-9.272v54.13zm23.971-82.887-49.226 24.613c-.22.11-.481.11-.703-.003l-48.207-24.485c-10.367-5.266-22.516-5.837-33.331-1.564l-18.345 7.247v-.047c4.919-2.601 8.283-7.765 8.283-13.706v-3.702c.423-.153.85-.295 1.266-.472l23.94-10.186 23.941 10.186c5.985 2.548 12.855 2.548 18.845 0l23.94-10.186 23.942 10.186c2.996 1.274 6.166 1.921 9.422 1.921 3.255 0 6.424-.646 9.422-1.921l23.941-10.187 23.941 10.187c5.988 2.548 12.855 2.548 18.844 0l9.755-4.15 3.873 8.852c-9.174.406-17.025 5.971-20.723 13.859l-19.559-7.824c-10.762-4.308-22.886-3.804-33.261 1.382zm65.556 16.621c0-4.999 4.067-9.066 9.066-9.066h8.279c11.526 0 21.297 7.647 24.512 18.133h-32.791c-4.999-.001-9.066-4.068-9.066-9.067zm-24.851 24.566c0-.276.225-.5.5-.5h42.483v18.133h-42.199-.284c-.275 0-.5-.224-.5-.5zm8.284 50.267v-17.633h42.983v18.133h-42.482c-.276 0-.501-.224-.501-.5zm57.983.5v-18.133h18.134v18.133zm76.117-.5c0 .276-.225.5-.5.5h-42.483v-18.133h42.983z" fill="#0c0a0b"/></g><g transform="matrix(0.34487253427505493 0 0 0.34487253427505493 118.88296508789062 170.59881591796875)" id="L1_2"><path d="m154.875 373.894531h77.226562v130.722657h-77.226562zm0 0" fill="#b8786c"/><path d="m154.875 458.6875c11.171875 7.730469 24.617188 12.136719 38.613281 12.136719 13.996094 0 27.4375-4.402344 38.609375-12.136719h.003906v-84.792969h-77.226562zm0 0" fill="#914b3b"/><path d="m107.753906 284.074219-55.214844 36.589843-41.128906 79.613282c-10.394531 20.121094 3.40625 44.683594 26.039063 45.507812.527343.019532 1.054687.027344 1.585937.027344 17.003906 0 31.691406-9.90625 38.613282-24.257812v-.003907c6.917968 14.355469 21.609374 24.261719 38.613281 24.261719 17 0 31.691406-9.90625 38.609375-24.257812v-.003907c6.921875 14.355469 21.609375 24.261719 38.613281 24.261719s31.695313-9.90625 38.613281-24.261719v.003907c6.921875 14.351562 21.609375 24.257812 38.613282 24.257812 17.003906 0 31.695312-9.90625 38.613281-24.261719v.003907c6.921875 14.351562 21.609375 24.257812 38.613281 24.257812.53125 0 1.058594-.007812 1.585938-.027344 22.632812-.824218 36.429687-25.386718 26.035156-45.507812l-41.125-79.613282-55.214844-36.589843zm0 0" fill="#35a155"/><path d="m335.546875 288.234375-45.269531-78.050781-96.285156-59.269532-97.289063 59.269532-45.269531 78.050781c-11.386719 19.628906 1.953125 44.769531 24.632812 45.59375.523438.019531 1.054688.03125 1.585938.03125 17.003906 0 31.691406-9.90625 38.613281-24.265625v.003906c6.917969 14.355469 21.609375 24.261719 38.609375 24.261719 17.003906 0 31.695312-9.90625 38.613281-24.265625 6.921875 14.359375 21.609375 24.265625 38.613281 24.265625 17.003907 0 31.691407-9.90625 38.613282-24.261719v-.003906c6.917968 14.359375 21.609375 24.265625 38.613281 24.265625.53125 0 1.0625-.011719 1.585937-.03125 22.675782-.824219 36.015626-25.964844 24.632813-45.59375zm0 0" fill="#79c08c"/><path d="m296.765625 177.285156-57.808594-98.367187h-90.941406l-57.808594 98.367187c-11.496093 19.566406 1.789063 44.773438 24.46875 45.597656.523438.019532 1.054688.03125 1.585938.03125 17.003906 0 31.695312-9.90625 38.613281-24.265624v.003906c6.917969 14.355468 21.609375 24.261718 38.609375 24.261718 17.003906 0 31.695313-9.90625 38.613281-24.265624v.003906c6.921875 14.355468 21.609375 24.261718 38.613282 24.261718.53125 0 1.0625-.011718 1.589843-.03125 22.679688-.828124 35.964844-26.035156 24.464844-45.597656zm0 0" fill="#35a155"/><path d="m242.246094 41.367188-16.257813-2.363282c-4.980469-.726562-9.289062-3.855468-11.515625-8.367187l-7.269531-14.730469c-5.609375-11.367188-21.820313-11.367188-27.429687 0l-7.269532 14.730469c-2.226562 4.511719-6.535156 7.640625-11.515625 8.367187l-16.253906 2.363282c-12.546875 1.820312-17.554687 17.238281-8.476563 26.085937l11.761719 11.464844c3.605469 3.515625 5.25 8.578125 4.398438 13.539062l-2.777344 16.191407c-2.140625 12.492187 10.972656 22.019531 22.191406 16.121093l14.542969-7.644531c4.453125-2.339844 9.777344-2.339844 14.234375 0l14.539063 7.644531c11.21875 5.898438 24.335937-3.628906 22.191406-16.121093l-2.777344-16.191407c-.851562-4.960937.792969-10.023437 4.398438-13.539062l11.761718-11.464844c9.074219-8.847656 4.066406-24.265625-8.476562-26.085937zm0 0" fill="#fee970"/><path d="m132.074219 275.554688c4.144531 0 7.503906-3.359376 7.503906-7.503907v-11.113281c0-4.144531-3.359375-7.503906-7.503906-7.503906s-7.503907 3.359375-7.503907 7.503906v11.113281c0 4.144531 3.359376 7.503907 7.503907 7.503907zm0 0"/><path d="m254.894531 275.554688c4.144531 0 7.503907-3.359376 7.503907-7.503907v-11.113281c0-4.144531-3.359376-7.503906-7.503907-7.503906s-7.503906 3.359375-7.503906 7.503906v11.113281c0 4.144531 3.359375 7.503907 7.503906 7.503907zm0 0"/><path d="m193.484375 281.484375c8.074219 0 15.65625-3.378906 20.804687-9.269531 2.730469-3.121094 2.410157-7.859375-.710937-10.589844-3.117187-2.722656-7.859375-2.410156-10.585937.714844-2.300782 2.628906-5.765626 4.136718-9.507813 4.136718s-7.207031-1.507812-9.507813-4.136718c-2.726562-3.121094-7.464843-3.441406-10.585937-.714844-3.121094 2.730469-3.441406 7.46875-.710937 10.589844 5.148437 5.890625 12.730468 9.269531 20.804687 9.269531zm0 0"/><path d="m154.871094 512h77.226562c4.144532 0 7.503906-3.359375 7.503906-7.503906v-62.136719c8.742188 6.859375 19.671876 10.835937 31.105469 10.835937 15.007813 0 29.160157-6.828124 38.613281-18.070312 9.453126 11.242188 23.605469 18.070312 38.613282 18.070312 28.542968 0 47.394531-31.113281 34.292968-56.484374l-10.453124-20.234376c-1.902344-3.679687-6.429688-5.125-10.109376-3.222656-3.683593 1.902344-5.125 6.429688-3.222656 10.109375 0 0 10.433594 20.203125 10.449219 20.234375 7.644531 14.792969-2.335937 33.300782-18.882813 34.578125-13.445312 1.039063-28-7.851562-33.855468-19.859375-.945313-2.078125-2.820313-3.671875-5.160156-4.207031-3.410157-.777344-6.910157.90625-8.429688 4.058594-12.582031 26.09375-50.945312 26.160156-63.636719.152343-.949219-2.089843-2.917969-3.699218-5.160156-4.207031-3.410156-.78125-6.90625.902344-8.429687 4.054688-12.605469 26.140625-51.109376 26.136719-63.707032 0-1.488281-3.09375-5.082031-4.820313-8.429687-4.054688-2.191407.5-4.210938 2.074219-5.128907 4.144531-12.320312 26.382813-51.226562 25.71875-63.664062-.089843-1.519531-3.152344-5.019531-4.835938-8.429688-4.054688-2.316406.527344-4.171874 2.097657-5.128906 4.140625-6.070312 12.507813-19.191406 20.425782-33.125 19.910156-17.011718-.636718-27.34375-19.664062-19.648437-34.566406l36.261719-70.1875c6.652343 5.222656 14.886718 7.828125 23.308593 7.828125 15.007813 0 29.160157-6.824219 38.613281-18.066406 9.453126 11.238281 23.605469 18.066406 38.613282 18.066406 15.007812 0 29.160156-6.824219 38.613281-18.066406 9.453125 11.242187 23.605469 18.066406 38.613281 18.066406 14.070313 0 27.386719-6 36.785156-16.011719.625-.664062 1.234376-1.351562 1.828126-2.054687 9.453124 11.242187 23.601562 18.066406 38.613281 18.066406 8.351562 0 16.714843-2.648437 23.308593-7.828125l12.160157 23.535156c1.898437 3.679688 6.425781 5.125 10.109375 3.222657 3.679687-1.902344 5.125-6.429688 3.222656-10.113281l-15.140625-29.304688c5.917969-11.601562 5.597656-25.113281-.953125-36.40625l-40.515625-69.855469c.800781-1.144531 1.558594-2.328125 2.242187-3.574219 6.511719-11.878906 6.316407-25.917968-.523437-37.554687l-54.832031-93.292969s7.542968-7.355468 7.550781-7.363281c13.304687-12.964844 5.671875-36.226563-12.632813-38.886719l-16.257812-2.359375c-2.535156-.371093-4.730469-1.964843-5.863281-4.261719 0 0-7.265625-14.722656-7.269531-14.730468-8.210938-16.636719-32.695313-16.601563-40.890626 0l-7.269531 14.730468c-1.132812 2.296876-3.328125 3.890626-5.863281 4.261719 0 0-16.242188 2.359375-16.257812 2.363281-18.332032 2.664063-25.914063 25.9375-12.632813 38.886719l7.550781 7.359375-22.640625 38.527344c-2.101562 3.570312-.90625 8.167969 2.664063 10.269531 3.574218 2.101563 8.171875.90625 10.273437-2.667969l14.304688-24.339843s-.925781 5.402343-.925781 5.402343c-1.171876 6.824219.953124 14.113282 5.648437 19.246094 6.886719 7.527344 18.417969 9.527344 27.429687 4.785156 0 0 14.539063-7.644531 14.550782-7.648437 2.15625-1.128906 4.835937-1.152344 7.023437-.089844.070313.03125.144531.058594.214844.09375 0 0 14.539063 7.644531 14.539063 7.644531 8.648437 4.546876 19.433593 2.996094 26.457031-3.78125 5.371093-5.1875 7.882812-12.898437 6.621093-20.25l-.925781-5.402343s46.476563 79.078125 46.492188 79.109375c8.824219 15.007812-2.253907 34.324218-19.585938 34.324218-13.433593 0-25.886719-7.792968-31.78125-19.867187-2.683593-5.503906-10.816406-5.902344-13.589843-.152344-5.859376 12.160157-18.363282 20.019531-31.851563 20.019531-13.125 0-26.277344-7.796874-31.78125-19.867187-.019531-.042969-.046875-.082031-.066406-.121094-2.59375-5.449219-10.894531-5.484375-13.527344-.03125-5.859375 12.160157-18.363281 20.019531-31.851563 20.019531-17.339843 0-28.390624-19.335937-19.585937-34.324218l17.078125-29.058594c2.101562-3.574219.90625-8.171875-2.667969-10.273438-3.570312-2.097656-8.171875-.902343-10.269531 2.667969l-17.078125 29.0625c-6.839844 11.636719-7.035156 25.675781-.519531 37.554688.683594 1.246093 1.4375 2.429687 2.238281 3.574219l-40.519531 69.855468c-6.550782 11.292969-6.867188 24.800782-.953125 36.402344 0 0-39.210938 75.90625-39.238281 75.960938-13.101563 25.363281 5.78125 56.484374 34.289062 56.484374 15.007812 0 29.160156-6.828124 38.613281-18.066406 9.457031 11.238282 23.605469 18.066406 38.613281 18.066406 11.4375 0 22.367188-3.972656 31.109376-10.832031v62.132813c0 4.144531 3.359374 7.503906 7.503906 7.503906zm7.503906-69.625c.082031.0625.167969.125.25.1875 18.125 14.027344 43.9375 13.957031 61.96875-.1875v54.617188h-62.21875zm83.105469-380.417969-11.761719 11.464844c-5.242188 5.109375-7.820312 12.824219-6.558594 20.179687 0 0 2.773438 16.160157 2.777344 16.191407 1.058594 6.183593-5.78125 11.121093-11.304688 8.210937-5.234374-2.75-10.390624-5.824218-15.785156-8.25-5.953125-2.683594-12.773437-2.683594-18.726562 0-5.382813 2.429688-10.554688 5.5-15.785156 8.25-5.609376 2.953125-12.371094-1.992187-11.300782-8.210937l2.773438-16.191407c1.269531-7.398437-1.179688-14.941406-6.5625-20.1875 0 0-11.714844-11.414062-11.757813-11.457031-4.546875-4.433593-1.925781-12.382812 4.320313-13.289062l16.253906-2.363281c7.429688-1.078126 13.84375-5.742188 17.167969-12.472657 0 0 7.246093-14.683593 7.269531-14.726562 2.8125-5.699219 11.171875-5.679688 13.972656 0l7.269532 14.730469c3.320312 6.730468 9.738281 11.390624 17.164062 12.46875 0 0 16.203125 2.355468 16.257812 2.363281 6.269532.914062 8.855469 8.863281 4.316407 13.289062zm-187.5625 229.917969 38.777343-66.859375c5.898438 3.550781 12.699219 5.277344 19.5625 5.277344 15.007813 0 29.160157-6.824219 38.613282-18.066407 9.453125 11.242188 23.605468 18.066407 38.613281 18.066407s29.15625-6.824219 38.613281-18.066407c9.453125 11.238282 23.605469 18.066407 38.609375 18.066407 6.855469 0 13.679688-1.734375 19.566407-5.277344 0 0 38.761718 66.828125 38.777343 66.859375 8.730469 15.050781-2.367187 34.355469-19.726562 34.355469-13.492188 0-25.992188-7.855469-31.855469-20.015625-1.242188-2.582032-4.019531-4.292969-6.90625-4.238282-3.21875.066407-5.566406 2.167969-6.96875 4.921876-5.972656 11.707031-18.347656 19.332031-31.496094 19.332031-13.488281 0-25.992187-7.855469-31.851562-20.015625-2.679688-5.554688-10.847656-5.546875-13.519532 0-5.863281 12.160156-18.363281 20.015625-31.855468 20.015625-12.460938 0-24.371094-6.910157-30.617188-17.679688-1.636718-2.828125-2.796875-5.589843-6.324218-6.394531-3.410157-.777344-6.910157.90625-8.429688 4.058594-5.859375 12.160156-18.363281 20.015625-31.851562 20.015625-17.363282 0-28.460938-19.304688-19.730469-34.355469zm0 0"/></g><g transform="matrix(0.28943222761154175 0 0 0.28943222761154175 195.99496459960938 198.9053497314453)" id="L1_3"><path d="m343.933594 442.460938c-4 .660156-8.011719 1.300781-12.035156 1.898437l-38.617188-49.96875v54.996094c-60.507812 6.570312-121.832031 7.160156-182.496094 1.769531-22.957031-2.042969-45.824218-4.9375-68.519531-8.695312-30.199219-5.003907-44.40625-31.976563-27.265625-51.898438 14.136719-16.429688 28.339844-33.195312 42.609375-50.292969 8.722656-10.441406 17.453125-21 26.207031-31.695312l1.027344-1.613281 60.703125-95.339844 156.835937 96.964844c8.324219 10.164062 16.632813 20.21875 24.917969 30.148437 14.714844 17.640625 29.34375 34.910156 43.898438 51.828125 17.140625 19.921875 2.941406 46.894531-27.265625 51.898438zm0 0" fill="#4dc168"/><path d="m327.300781 338.734375c-2.84375 1.128906-5.941406 1.992187-9.273437 2.539063-84.3125 13.953124-171.488282 13.953124-255.800782 0-1.59375-.265626-3.136718-.597657-4.617187-1.003907 8.722656-10.441406 17.453125-21 26.207031-31.695312l61.730469-96.953125 156.835937 96.964844c8.324219 10.164062 16.632813 20.21875 24.917969 30.148437zm0 0" fill="#3dad52"/><path d="m321.003906 305.734375c-55.363281 9.15625-111.953125 12.304687-168.15625 9.441406l-14.917968-59.394531-19.203126 56.898438c-17.929687-1.695313-35.792968-4.011719-53.523437-6.945313-25.609375-4.234375-37.652344-27.105469-23.121094-44 17.636719-20.511719 35.429688-41.644531 53.320313-63.382813 4.753906-5.78125 9.515625-11.609374 14.277344-17.476562 3.382812-4.152344 6.761718-8.335938 10.144531-12.542969l62.042969-62.042969 84.515624 62.042969c8.15625 10.136719 16.296876 20.136719 24.410157 30.019531 17.894531 21.738282 35.683593 42.871094 53.324219 63.382813 14.53125 16.894531 2.496093 39.765625-23.113282 44zm0 0" fill="#4dc168"/><path d="m244.125 492.777344c-16.125 7.738281-33.582031 11.605468-51.027344 11.605468-3.664062 0-7.339844-.171874-10.996094-.515624-13.730468-1.28125-27.296874-4.976563-40.027343-11.089844l6.773437-39.035156h88.503906l3.179688 18.320312zm0 0" fill="#7f4a26"/><g fill="#3dad52"><path d="m290.792969 198.351562c-64.40625 10.578126-130.992188 10.570313-195.390625 0 8.125-9.882812 16.269531-19.882812 24.421875-30.019531l62.042969-62.042969 84.515624 62.042969c8.15625 10.136719 16.296876 20.136719 24.410157 30.019531zm0 0"/><path d="m157.730469 196.390625-19.800781 59.390625-19.203126 56.898438c-17.929687-1.695313-35.792968-4.011719-53.523437-6.945313-25.609375-4.234375-37.652344-27.105469-23.121094-44 17.636719-20.511719 35.429688-41.644531 53.320313-63.382813 4.753906-5.78125 9.515625-11.609374 14.277344-17.476562zm0 0"/><path d="m110.757812 451.144531c.007813 0 .019532.011719.027344.011719-22.957031-2.042969-45.824218-4.9375-68.519531-8.695312-30.199219-5.003907-44.40625-31.976563-27.265625-51.898438 14.136719-16.429688 28.339844-33.195312 42.609375-50.292969 8.722656-10.441406 17.453125-21 26.207031-31.695312l1.027344-1.613281 50.039062 28.027343s-95.472656 95.238281-24.125 116.15625zm0 0"/></g><path d="m291.628906 164.707031c-45.765625 7.578125-92.640625 9.820313-139.054687 6.703125-.023438 0-.042969 0-.074219-.011718-1.816406-.109376-3.632812-.230469-5.453125-.382813-.007813 0-.007813 0-.019531 0-.660156-.042969-1.328125-.09375-1.988282-.152344-.011718 0-.019531 0-.03125-.011719-16.90625-1.332031-33.742187-3.382812-50.425781-6.144531-19.730469-3.257812-29.011719-20.875-17.8125-33.894531 30.230469-35.144531 61.027344-72.644531 91.957031-112.519531 5.128907-6.621094 13.660157-10.175781 22.414063-10.632813 10.0625-.519531 20.429687 3.015625 26.339844 10.632813 30.917969 39.875 61.71875 77.375 91.949219 112.519531 11.199218 13.019531 1.917968 30.636719-17.800782 33.894531zm0 0" fill="#4dc168"/><path d="m191.140625 7.660156v.007813s-93.363281 157.285156-46.132813 163.183593c-16.90625-1.332031-33.742187-3.382812-50.425781-6.144531-19.730469-3.257812-29.011719-20.875-17.8125-33.894531 30.230469-35.144531 61.027344-72.644531 91.957031-112.519531 5.128907-6.621094 13.660157-10.175781 22.414063-10.632813zm0 0" fill="#3dad52"/><path d="m244.125 492.777344c-16.125 7.738281-33.582031 11.605468-51.027344 11.605468-3.664062 0-7.339844-.171874-10.996094-.515624v-31.804688h58.429688zm0 0" fill="#935d35"/><path d="m147.046875 171.015625c2.082031.070313 3.902344.203125 5.453125.382813-1.816406-.109376-3.632812-.230469-5.453125-.382813zm0 0" fill="#3dad52"/><path d="m376.972656 385.597656c-20.292968-23.597656-40.496094-47.59375-60.1875-71.476562 1.824219-.289063 3.644532-.574219 5.460938-.875 16.222656-2.683594 29.210937-12.359375 33.890625-25.257813 3.890625-10.703125 1.609375-22.082031-6.246094-31.222656-23.367187-27.164063-46.550781-54.925781-69.058594-82.671875 4.015625-.582031 8.027344-1.207031 12.035157-1.867188 13.121093-2.171874 23.648437-10.0625 27.472656-20.59375 3.214844-8.855468 1.339844-18.253906-5.132813-25.78125-12.125-14.097656-24.261719-28.484374-36.066406-42.757812-2.683594-3.242188-7.480469-3.695312-10.722656-1.015625-3.242188 2.683594-3.695313 7.480469-1.015625 10.722656 11.871094 14.351563 24.066406 28.8125 36.253906 42.980469 2.867188 3.332031 3.683594 7.015625 2.363281 10.652344-1.949219 5.363281-7.941406 9.488281-15.640625 10.761718-64.550781 10.6875-130.011718 10.6875-194.5625 0-7.699218-1.273437-13.691406-5.398437-15.640625-10.761718-1.320312-3.636719-.503906-7.320313 2.363281-10.652344 31.703126-36.859375 62.722657-74.820312 92.203126-112.820312 3.753906-4.839844 10.617187-7.730469 18.359374-7.730469 7.738282 0 14.601563 2.890625 18.355469 7.734375 11.707031 15.089844 23.753907 30.300781 35.804688 45.207031 2.644531 3.269531 7.441406 3.78125 10.710937 1.132813 3.273438-2.644532 3.78125-7.441407 1.132813-10.710938-11.988281-14.828125-23.96875-29.957031-35.609375-44.964844-6.621094-8.535156-17.980469-13.628906-30.394532-13.628906-12.414062 0-23.777343 5.09375-30.394531 13.628906-29.320312 37.796875-60.175781 75.554688-91.714843 112.222656-6.476563 7.527344-8.347657 16.925782-5.132813 25.78125 3.824219 10.53125 14.351563 18.421876 27.472656 20.59375 4.011719.664063 8.023438 1.285157 12.042969 1.871094-22.4375 27.65625-45.625 55.414063-69.066406 82.671875-7.859375 9.136719-10.132813 20.511719-6.25 31.214844 4.6875 12.902344 17.675781 22.582031 33.902344 25.265625 1.808593.296875 3.628906.585938 5.445312.875-19.765625 23.984375-39.96875 47.976562-60.179688 71.472656-8.933593 10.386719-11.53125 23.304688-7.128906 35.445313 5.355469 14.753906 20.265625 25.839843 38.925782 28.933593 7.957031 1.316407 16.0625 2.546876 24.09375 3.65625.351562.050782.703124.074219 1.050781.074219 3.742187 0 7.007812-2.761719 7.535156-6.574219.574219-4.164062-2.335937-8.007812-6.5-8.585937-7.898437-1.09375-15.871094-2.300781-23.691406-3.597656-13.234375-2.191407-23.613281-9.511719-27.09375-19.097657-2.511719-6.921874-.964844-14.140624 4.355469-20.320312 22.28125-25.898438 44.542968-52.402344 66.230468-78.832031 10.308594 1.386719 20.675782 2.585937 31.007813 3.5625 3.511719.332031 6.800781-1.796875 7.933593-5.144531l10.914063-32.335938 8.601563 34.253906c.816406 3.246094 3.65625 5.578125 7 5.75 13.527343.6875 27.058593 1.03125 40.59375 1.03125 35.566406 0 71.078124-2.378906 106.140624-7.113281 21.59375 26.308594 43.855469 52.808594 66.230469 78.828125 5.320313 6.183594 6.867188 13.402344 4.355469 20.324219-3.476562 9.585937-13.859375 16.902343-27.085938 19.09375-2.679687.441406-5.164062.839843-7.511718 1.207031l-35.875-46.421875c-1.992188-2.578125-5.402344-3.601563-8.484375-2.550781-3.082031 1.054687-5.15625 3.949218-5.15625 7.207031v48.136719c-63.515625 6.417968-127.847657 6.203125-191.339844-.644532-4.183594-.453124-7.9375 2.574219-8.386719 6.753907-.453125 4.183593 2.570313 7.9375 6.753906 8.390625 15.683594 1.691406 31.421876 2.96875 47.179688 3.863281l-5.304688 30.585937c-.582031 3.355469 1.132813 6.691407 4.207032 8.167969 16.847656 8.082031 35.628906 12.355469 54.320312 12.355469s37.476563-4.273438 54.324219-12.355469c3.070313-1.476562 4.789063-4.8125 4.207031-8.167969l-5.304687-30.582031c15.964843-.910156 31.898437-2.210937 47.78125-3.933593 3.867187-.421876 6.792969-3.683594 6.792969-7.570313v-32.6875l24.976562 32.316406c1.683594 2.183594 4.421875 3.28125 7.148438 2.875 3.679687-.546875 7.652343-1.175781 12.15625-1.917969 18.652343-3.089843 33.566406-14.175781 38.917968-28.929687 4.40625-12.140625 1.808594-25.0625-7.125-35.449219zm-218.117187-77.761718-13.539063-53.90625c-.824218-3.28125-3.707031-5.621094-7.082031-5.757813-3.386719-.132813-6.441406 1.972656-7.519531 5.175781l-17.265625 51.160156c-15.738281-1.613281-31.523438-3.726562-47.003907-6.289062-10.804687-1.785156-19.257812-7.699219-22.066406-15.433594-2.011718-5.539062-.808594-11.101562 3.476563-16.085937 25.597656-29.757813 50.890625-60.121094 75.238281-90.296875 23.285156 2.691406 46.644531 4.042968 70.007812 4.042968 23.363282 0 46.726563-1.351562 70.011719-4.042968 24.433594 30.28125 49.722657 60.640625 75.230469 90.296875 4.289062 4.988281 5.492188 10.550781 3.480469 16.089843-2.808594 7.734376-11.261719 13.644532-22.0625 15.429688-52.855469 8.746094-106.960938 11.976562-160.90625 9.617188zm76.753906 180.414062c-13.410156 5.585938-27.992187 8.519531-42.507813 8.519531-14.519531 0-29.101562-2.933593-42.511718-8.519531l4.613281-26.601562c12.625.511718 25.261719.765624 37.898437.765624 12.636719 0 25.269532-.253906 37.894532-.765624zm0 0"/></g><g transform="matrix(0.34175920486450195 0 0 0.34175920486450195 219.41172790527344 174.5096435546875)" id="L1_4"><path d="m404.741 479.75-60.726-105.18h-30l46.436 129.93h30c12.702 0 20.641-13.75 14.29-24.75z" fill="#377d5b"/><path d="m374.741 479.75-60.726-105.18h-146.03l-60.726 105.18c-6.351 11 1.588 24.75 14.289 24.75h238.903c12.702 0 20.641-13.75 14.29-24.75z" fill="#33965d"/><path d="m374.989 380.922-61.362-106.282h-30l47.709 129.93h30c12.136 0 19.721-13.137 13.653-23.648z" fill="#33965d"/><path d="m344.989 380.922-61.362-106.282h-85.253l-61.362 106.282c-6.068 10.51 1.517 23.648 13.653 23.648h180.671c12.136 0 19.721-13.137 13.653-23.648z" fill="#38ad63"/><path d="m343.964 282.095-74.947-129.812c-2.893-5.01-7.955-7.515-13.017-7.515s-10.124 2.505-13.017 7.515l-1.983 3.435 59.947 148.923h30c11.571-.001 18.802-12.526 13.017-22.546z" fill="#38ad63"/><path d="m313.964 282.095-72.964-126.377-72.964 126.377c-5.785 10.02 1.446 22.546 13.017 22.546h119.894c11.571-.001 18.802-12.526 13.017-22.546z" fill="#49c470"/><path d="m301.977 40.214-23.357-1.555-8.696-21.733c-2.515-6.284-8.219-9.426-13.924-9.426s-11.409 3.142-13.924 9.426l-8.696 21.733-23.357 1.555c-13.506.899-19.004 17.818-8.605 26.484l17.982 14.986-5.739 22.694c-3.319 13.123 11.074 23.58 22.529 16.368l19.81-12.47 19.81 12.471c11.455 7.212 25.847-3.245 22.529-16.368l-5.739-22.695 17.982-14.987c10.398-8.665 4.901-25.584-8.605-26.483z" fill="#ffc766"/><path d="m196.616 72.459 14.355 11.964-4.582 18.117c-2.268 8.969 1.103 18.278 8.587 23.715s17.378 5.768 25.21.838l15.814-9.955 15.814 9.956c3.694 2.326 7.849 3.48 11.992 3.48 4.639 0 9.264-1.447 13.217-4.319 7.484-5.438 10.854-14.747 8.587-23.716l-4.582-18.116 14.355-11.964c7.106-5.923 9.852-15.436 6.993-24.234s-10.671-14.881-19.902-15.495l-18.646-1.241-6.942-17.35c-3.436-8.589-11.635-14.139-20.886-14.139s-17.45 5.55-20.887 14.14l-6.942 17.35-18.646 1.241c-9.231.614-17.043 6.697-19.902 15.495-2.858 8.798-.113 18.31 6.993 24.233zm7.274-19.599c.367-1.132 1.933-4.851 6.632-5.164l23.356-1.554c2.879-.191 5.394-2.018 6.465-4.697l8.696-21.733c1.75-4.372 5.771-4.712 6.961-4.712s5.211.34 6.961 4.712l8.696 21.733c1.071 2.679 3.586 4.506 6.465 4.697l23.356 1.554c4.699.313 6.265 4.031 6.632 5.164.368 1.132 1.288 5.061-2.33 8.076l-17.982 14.987c-2.217 1.847-3.177 4.803-2.47 7.6l5.739 22.693c1.155 4.566-1.898 7.204-2.861 7.903-.963.7-4.415 2.788-8.4.279l-19.81-12.471c-1.222-.769-2.608-1.153-3.996-1.153s-2.774.384-3.996 1.153l-19.809 12.471c-3.988 2.509-7.438.421-8.401-.279s-4.017-3.337-2.861-7.903l5.739-22.694c.707-2.797-.253-5.753-2.47-7.6l-17.982-14.986c-3.618-3.015-2.699-6.943-2.33-8.076z"/><path d="m271 282.141c4.143 0 7.5-3.358 7.5-7.5v-15c0-4.142-3.357-7.5-7.5-7.5s-7.5 3.358-7.5 7.5v15c0 4.142 3.357 7.5 7.5 7.5z"/><path d="m241 252.141c4.143 0 7.5-3.358 7.5-7.5v-15c0-4.142-3.357-7.5-7.5-7.5s-7.5 3.358-7.5 7.5v15c0 4.142 3.357 7.5 7.5 7.5z"/><path d="m301.336 382.07c4.143 0 7.5-3.358 7.5-7.5v-15c0-4.142-3.357-7.5-7.5-7.5s-7.5 3.358-7.5 7.5v15c0 4.142 3.357 7.5 7.5 7.5z"/><path d="m210.664 357.141c4.143 0 7.5-3.358 7.5-7.5v-15c0-4.142-3.357-7.5-7.5-7.5s-7.5 3.358-7.5 7.5v15c0 4.142 3.357 7.5 7.5 7.5z"/><path d="m181.549 452c-4.143 0-7.5 3.358-7.5 7.5v15c0 4.142 3.357 7.5 7.5 7.5s7.5-3.358 7.5-7.5v-15c0-4.142-3.358-7.5-7.5-7.5z"/><path d="m330.451 452c-4.143 0-7.5 3.358-7.5 7.5v15c0 4.142 3.357 7.5 7.5 7.5s7.5-3.358 7.5-7.5v-15c0-4.142-3.357-7.5-7.5-7.5z"/><path d="m241 427.07c-4.143 0-7.5 3.358-7.5 7.5v15c0 4.142 3.357 7.5 7.5 7.5s7.5-3.358 7.5-7.5v-15c0-4.142-3.357-7.5-7.5-7.5z"/><path d="m271 452c-4.143 0-7.5 3.358-7.5 7.5v15c0 4.142 3.357 7.5 7.5 7.5s7.5-3.358 7.5-7.5v-15c0-4.142-3.357-7.5-7.5-7.5z"/><path d="m411.235 476-38.586-66.834c3.605-2.001 6.665-4.97 8.834-8.728 4.206-7.284 4.206-15.981 0-23.265l-39.267-68.012c3.356-1.935 6.203-4.753 8.242-8.285 4.072-7.054 4.072-15.477 0-22.531l-74.947-129.813c-4.072-7.054-11.366-11.265-19.512-11.265s-15.439 4.211-19.512 11.265l-74.947 129.813c-4.072 7.054-4.072 15.477 0 22.531 2.039 3.531 4.886 6.35 8.242 8.285l-39.267 68.012c-4.206 7.284-4.206 15.981 0 23.266 2.169 3.758 5.225 6.735 8.829 8.736l-38.579 66.825c-4.339 7.514-4.339 16.486-.001 24s12.108 12 20.785 12h268.902c8.677 0 16.447-4.486 20.785-12s4.338-16.486-.001-24zm-236.704-190.155 74.947-129.813c1.962-3.398 5.214-3.765 6.521-3.765s4.56.367 6.521 3.765l74.947 129.813c1.962 3.398.653 6.398 0 7.531-.653 1.132-2.598 3.765-6.521 3.765h-149.893c-3.924 0-5.868-2.633-6.521-3.765-.654-1.133-1.963-4.133-.001-7.531zm223.715 206.655c-.781 1.353-3.104 4.5-7.795 4.5h-268.902c-4.69 0-7.014-3.147-7.795-4.5-.78-1.353-2.345-4.938.001-9l43.404-75.18c1.34-2.32 1.34-5.18 0-7.5s-3.815-3.75-6.495-3.75c-4.307 0-6.44-2.89-7.157-4.132-.718-1.243-2.153-4.536 0-8.266l41.876-72.532h141.234l41.876 72.532c2.153 3.73.718 7.023 0 8.266-.717 1.242-2.851 4.132-7.157 4.132h-180.672c-4.143 0-7.5 3.358-7.5 7.5s3.357 7.5 7.5 7.5h176.342l41.239 71.43c2.346 4.062.781 7.647.001 9z"/></g><g transform="matrix(0.4457089602947235 0 0 0.4457089602947235 -51.969085693359375 132.7425994873047)" id="L1_5"><g fill="#ff6243"><path d="m184.035156 24.019531c0 8.835938-7.164062 16-16 16-8.835937 0-16-7.164062-16-16 0-8.835937 7.164063-16 16-16 8.835938 0 16 7.164063 16 16zm0 0"/><path d="m304.035156 208.019531c0 8.835938-7.164062 16-16 16-8.835937 0-16-7.164062-16-16 0-8.835937 7.164063-16 16-16 8.835938 0 16 7.164063 16 16zm0 0"/><path d="m40.035156 312.019531c0 8.835938-7.164062 16-16 16-8.835937 0-16-7.164062-16-16 0-8.835937 7.164063-16 16-16 8.835938 0 16 7.164063 16 16zm0 0"/></g><path d="m301.957031 379.140625-53.679687-69.121094-17.121094-22h61.441406c3.25.019531 6.1875-1.929687 7.433594-4.929687 1.246094-3.003906.550781-6.460938-1.753906-8.75l-46.648438-46.238282-44.472656-44.082031h72.878906l-112-144-101.917968 131.121094c-1.894532 2.390625-2.253907 5.652344-.925782 8.398437 1.328125 2.746094 4.113282 4.488282 7.164063 4.480469h56.5625l-41.601563 41.28125h-.082031l-63.199219 62.71875h80.882813l-34.882813 44.878907-35.917968 46.242187c-1.894532 2.390625-2.253907 5.652344-.925782 8.398437 1.328125 2.746094 4.113282 4.488282 7.164063 4.480469h255.359375c3.050781.007813 5.835937-1.734375 7.167968-4.480469 1.328126-2.746093.96875-6.007812-.925781-8.398437zm-93.921875-131.121094c0 8.835938-7.164062 16-16 16-8.835937 0-16-7.164062-16-16 0-8.835937 7.164063-16 16-16 8.835938 0 16 7.164063 16 16zm-56-120c8.835938 0 16 7.164063 16 16 0 8.835938-7.164062 16-16 16-8.835937 0-16-7.164062-16-16 0-8.835937 7.164063-16 16-16zm-16 224c-8.835937 0-16-7.164062-16-16 0-8.835937 7.164063-16 16-16 8.835938 0 16 7.164063 16 16 0 8.835938-7.164062 16-16 16zm0 0" fill="#1db794"/><path d="m152.035156 160.019531c5.394532-.003906 10.421875-2.726562 13.375-7.242187s3.433594-10.214844 1.273438-15.15625c-3.195313-7.328125-11.308594-11.167969-19.003906-9-7.691407 2.167968-12.605469 9.679687-11.507813 17.597656s7.871094 13.808594 15.863281 13.800781zm0 0" fill="#ff6243"/><path d="m208.035156 248.019531c0 8.835938-7.164062 16-16 16-8.835937 0-16-7.164062-16-16 0-8.835937 7.164063-16 16-16 8.835938 0 16 7.164063 16 16zm0 0" fill="#ff6243"/><path d="m152.035156 336.019531c0 8.835938-7.164062 16-16 16-8.835937 0-16-7.164062-16-16 0-8.835937 7.164063-16 16-16 8.835938 0 16 7.164063 16 16zm0 0" fill="#ff6243"/><path d="m128.035156 472.019531h80l-16-80h-48zm0 0" fill="#957856"/><path d="m247.523438 296.019531h45.074218c6.488282.019531 12.347656-3.886719 14.828125-9.886719s1.089844-12.902343-3.519531-17.472656l-77.316406-76.640625h43.6875c-7.511719 8.425781-8.109375 20.957031-1.429688 30.058594 6.675782 9.101563 18.808594 12.292969 29.097656 7.65625 10.292969-4.636719 15.941407-15.835937 13.550782-26.867187-2.394532-11.03125-12.171875-18.890626-23.460938-18.847657h-.070312c.03125-1.773437-.53125-3.503906-1.601563-4.917969l-105.085937-135.082031c8.835937-5.839843 12.796875-16.785156 9.746094-26.929687-3.050782-10.144532-12.390626-17.089844-22.984376-17.089844s-19.933593 6.945312-22.984374 17.089844c-3.046876 10.144531.914062 21.089844 9.75 26.929687l-94.9375 122.128907c-3.8125 4.792968-4.542969 11.34375-1.882813 16.859374 2.664063 5.515626 8.25 9.015626 14.371094 9.011719h37.144531l-27.199219 26.96875c-.253906.199219-.496093.410157-.730469.632813l-63.199218 62.71875c-1.84375 1.863281-2.652344 4.519531-2.160156 7.097656-10.023438 3.441406-16.601563 13.054688-16.1835942 23.644531.4218752 10.589844 7.7382812 19.652344 18.0000002 22.292969 10.265625 2.644531 21.046875-1.761719 26.527344-10.835938 5.480468-9.070312 4.359374-20.664062-2.757813-28.519531h46.765625l-60.695312 78.128907c-3.8125 4.792968-4.542969 11.34375-1.882813 16.859374 2.664063 5.515626 8.25 9.015626 14.371094 9.011719h93.921875l-14.082032 70.402344c-.480468 2.351563.125 4.796875 1.644532 6.660156 1.519531 1.859375 3.792968 2.9375 6.195312 2.9375h80c2.402344 0 4.679688-1.078125 6.199219-2.9375 1.519531-1.863281 2.121094-4.308593 1.640625-6.660156l-14.078125-70.402344h93.917969c6.105468.007813 11.675781-3.472656 14.351562-8.960937 2.671875-5.488282 1.976563-12.019532-1.789062-16.824219zm48.511718-88c0 4.417969-3.582031 8-8 8-4.417968 0-8-3.582031-8-8s3.582032-8 8-8c4.417969 0 8 3.582031 8 8zm-144-88c-9.539062.003907-18.167968 5.660157-21.984375 14.402344-8.746093.75-17.53125 1.207031-26.359375 1.367187l64.34375-82.738281 47.257813 60.800781c-14.292969 6.839844-29.398438 11.832032-44.953125 14.863282-4.507813-5.472656-11.214844-8.660156-18.304688-8.695313zm8 24c0 4.417969-3.582031 8-8 8-4.417968 0-8-3.582031-8-8s3.582032-8 8-8c4.417969 0 8 3.582031 8 8zm8-128c4.417969 0 8 3.582031 8 8s-3.582031 8-8 8c-4.417968 0-8-3.582031-8-8s3.582032-8 8-8zm-75.808594 215.59375c.257813-.195312.5-.40625.730469-.632812l41.597657-41.28125c2.296874-2.277344 2.996093-5.714844 1.773437-8.710938-1.226563-2.992187-4.136719-4.953125-7.371094-4.96875h-56.488281l18.71875-24.078125c1.601562 0 3.199219.046875 4.886719.046875 11.011719 0 22.058593-.566406 33.027343-1.449219 3.296876 11.441407 14.5 18.71875 26.292969 17.082032 11.792969-1.636719 20.589844-11.695313 20.640625-23.601563v-.191406c17.125-3.480469 33.699219-9.246094 49.28125-17.152344l38.367188 49.34375h-56.527344c-3.234375.015625-6.144531 1.976563-7.371094 4.96875-1.226562 2.996094-.527344 6.433594 1.769532 8.710938l36.882812 36.601562c-8.285156 3.960938-16.894531 7.214844-25.730469 9.71875-5.097656-8.925781-15.339843-13.578125-25.414062-11.546875-10.078125 2.035156-17.714844 10.296875-18.953125 20.5-29.992188 3.671875-60.308594 3.929688-90.359375.757813zm107.808594 16.40625c0 4.417969-3.582031 8-8 8-4.417968 0-8-3.582031-8-8s3.582032-8 8-8c4.417969 0 8 3.582031 8 8zm-176 72c-4.417968 0-8-3.582031-8-8s3.582032-8 8-8c4.417969 0 8 3.582031 8 8s-3.582031 8-8 8zm88.066406-35.511719c-1.34375-2.75-4.140624-4.492187-7.203124-4.488281h-61.445313l20.109375-19.960937c18.710938 2.648437 37.578125 3.96875 56.472656 3.960937 17.289063 0 34.558594-1.109375 51.703125-3.320312 5.257813 8.496093 15.25 12.824219 25.042969 10.847656s17.320312-9.839844 18.871094-19.710937c12.019531-3.277344 23.628906-7.90625 34.609375-13.800782l42.335937 41.984375h-61.441406c-3.054688 0-5.84375 1.742188-7.183594 4.488281-1.34375 2.742188-1.003906 6.011719.871094 8.425782l11.199219 14.398437c-24.871094 10.496094-51.296875 16.839844-78.222657 18.785157-3.988281-8.890626-12.972656-14.464844-22.707031-14.09375-9.734375.371093-18.265625 6.613281-21.566406 15.78125-9.535156-.152344-18.949219-.679688-28.277344-1.511719l25.964844-33.359375c1.875-2.414063 2.210937-5.683594.867187-8.425782zm31.933594 51.511719c0 4.417969-3.582031 8-8 8-4.417968 0-8-3.582031-8-8s3.582032-8 8-8c4.417969 0 8 3.582031 8 8zm54.242188 128h-60.480469l12.800781-64h34.878906zm-157.847656-80 33.207031-42.742187c13.007812 1.496094 26.328125 2.328125 39.777343 2.535156 3.386719 10.003906 12.949219 16.589844 23.503907 16.191406 10.558593-.402344 19.59375-7.695312 22.214843-17.925781 30.046876-2.03125 59.480469-9.445313 86.902344-21.890625l49.730469 63.832031zm0 0" fill="#2d2d30"/></g></defs><g fi:class="KUsePattern"><pattern id="pattern_L1_3" width="350" height="350" patternUnits="userSpaceOnUse"><use xlink:href="#L1_3" x="-350" y="-350"/><use xlink:href="#L1_3" x="0" y="-350"/><use xlink:href="#L1_3" x="350" y="-350"/><use xlink:href="#L1_3" x="-350" y="0"/><use xlink:href="#L1_3" x="0" y="0"/><use xlink:href="#L1_3" x="350" y="0"/><use xlink:href="#L1_3" x="-350" y="350"/><use xlink:href="#L1_3" x="0" y="350"/><use xlink:href="#L1_3" x="350" y="350"/></pattern><rect x="0" y="0" width="100%" height="100%" fill="url(#pattern_L1_3)"/></g><g fi:class="KUsePattern"><pattern id="pattern_L1_2" width="350" height="350" patternUnits="userSpaceOnUse"><use xlink:href="#L1_2" x="-350" y="-350"/><use xlink:href="#L1_2" x="0" y="-350"/><use xlink:href="#L1_2" x="350" y="-350"/><use xlink:href="#L1_2" x="-350" y="0"/><use xlink:href="#L1_2" x="0" y="0"/><use xlink:href="#L1_2" x="350" y="0"/><use xlink:href="#L1_2" x="-350" y="350"/><use xlink:href="#L1_2" x="0" y="350"/><use xlink:href="#L1_2" x="350" y="350"/></pattern><rect x="0" y="0" width="100%" height="100%" fill="url(#pattern_L1_2)"/></g><g fi:class="KUsePattern"><pattern id="pattern_L1_5" width="350" height="350" patternUnits="userSpaceOnUse"><use xlink:href="#L1_5" x="-350" y="-350"/><use xlink:href="#L1_5" x="0" y="-350"/><use xlink:href="#L1_5" x="350" y="-350"/><use xlink:href="#L1_5" x="-350" y="0"/><use xlink:href="#L1_5" x="0" y="0"/><use xlink:href="#L1_5" x="350" y="0"/><use xlink:href="#L1_5" x="-350" y="350"/><use xlink:href="#L1_5" x="0" y="350"/><use xlink:href="#L1_5" x="350" y="350"/></pattern><rect x="0" y="0" width="100%" height="100%" fill="url(#pattern_L1_5)"/></g><g fi:class="KUsePattern"><pattern id="pattern_L1_0" width="350" height="350" patternUnits="userSpaceOnUse"><use xlink:href="#L1_0" x="-350" y="-350"/><use xlink:href="#L1_0" x="0" y="-350"/><use xlink:href="#L1_0" x="350" y="-350"/><use xlink:href="#L1_0" x="-350" y="0"/><use xlink:href="#L1_0" x="0" y="0"/><use xlink:href="#L1_0" x="350" y="0"/><use xlink:href="#L1_0" x="-350" y="350"/><use xlink:href="#L1_0" x="0" y="350"/><use xlink:href="#L1_0" x="350" y="350"/></pattern><rect x="0" y="0" width="100%" height="100%" fill="url(#pattern_L1_0)"/></g><g fi:class="KUsePattern"><pattern id="pattern_L1_4" width="350" height="350" patternUnits="userSpaceOnUse"><use xlink:href="#L1_4" x="-350" y="-350"/><use xlink:href="#L1_4" x="0" y="-350"/><use xlink:href="#L1_4" x="350" y="-350"/><use xlink:href="#L1_4" x="-350" y="0"/><use xlink:href="#L1_4" x="0" y="0"/><use xlink:href="#L1_4" x="350" y="0"/><use xlink:href="#L1_4" x="-350" y="350"/><use xlink:href="#L1_4" x="0" y="350"/><use xlink:href="#L1_4" x="350" y="350"/></pattern><rect x="0" y="0" width="100%" height="100%" fill="url(#pattern_L1_4)"/></g></svg>