<svg id="Capa_1" enable-background="new 0 0 512 512" height="512" viewBox="0 0 512 512" width="512" xmlns="http://www.w3.org/2000/svg"><g><g><g><path d="m355.4 73.767-3.823 49.7-14.686 41.418 8.314 41.416-5.195 67.538c-.664 8.631-7.861 15.296-16.518 15.296v10.533h-118.417v-10.533c-8.657 0-15.854-6.665-16.518-15.296l-5.195-67.537 13.972-41.417-20.343-41.415-3.823-49.701 91.115-16.569z" fill="#e9efff"/><path d="m264.283 57.2-11.5 2.091 79.617 14.476-15.39 200.071c-.664 8.631-7.861 15.296-16.518 15.296v10.533h23v-10.533c8.657 0 15.854-6.665 16.518-15.296l15.39-200.071z" fill="#d3dcfb"/><g><path d="m355.4 40.633-15.842-25.347c-3.027-4.844-8.336-7.786-14.048-7.786h-122.453c-5.712 0-11.021 2.943-14.049 7.786l-15.842 25.347 91.117 16.567z" fill="#e9efff"/><path d="m339.558 15.286c-3.027-4.844-8.336-7.786-14.049-7.786h-23c5.712 0 11.021 2.943 14.049 7.786l15.842 25.347-79.617 14.476 11.5 2.091 91.117-16.567z" fill="#d3dcfb"/><path d="m363.967 40.633c4.418 0 8 3.582 8 8v17.133c0 4.418-3.582 8-8 8h-199.367c-4.418 0-8-3.582-8-8v-17.133c0-4.418 3.582-8 8-8z" fill="#9bd8f9"/><path d="m363.967 40.633h-23c4.418 0 8 3.582 8 8v17.133c0 4.418-3.582 8-8 8h23c4.418 0 8-3.582 8-8v-17.133c0-4.418-3.582-8-8-8z" fill="#73c3f9"/></g><path d="m183.361 206.3h161.844l6.372-82.833h-174.587z" fill="#4ce088"/><path d="m345.205 206.3 6.372-82.833h-23l-6.372 82.833z" fill="#30c16b"/></g><g><path d="m63.5 310.5h341.6v56.667h-341.6z" fill="#e9efff"/><path d="m382.1 310.5h23v56.667h-23z" fill="#d3dcfb"/><path d="m106.9 399.5h306.483v-10.967c4.575 0 8.283-3.708 8.283-8.283v-16.567c0-4.575-3.709-8.283-8.283-8.283h-306.483l-14.15 18.85z" fill="#4fabf7"/><path d="m140.033 316.5v63.733c0 7.38 8.922 11.075 14.141 5.857l13.136-13.136c3.235-3.235 8.48-3.235 11.714 0l13.136 13.136c5.218 5.218 14.141 1.522 14.141-5.857v-63.733z" fill="#ff4155"/><path d="m413.383 355.4h-23c4.575 0 8.283 3.709 8.283 8.283v16.567c0 4.575-3.709 8.283-8.283 8.283h23c4.575 0 8.283-3.709 8.283-8.283v-16.567c.001-4.574-3.708-8.283-8.283-8.283z" fill="#1886ea"/><path d="m183.362 316.5v60.793l8.798 8.798c5.218 5.218 14.141 1.522 14.141-5.857v-63.734z" fill="#e80054"/><path d="m106.9 322.267h306.483c4.575 0 8.283-3.709 8.283-8.283v-16.567c0-4.575-3.709-8.283-8.283-8.283h-306.483l-14.15 16.566z" fill="#4fabf7"/><path d="m106.9 399.5v-44.1h-24.85c-4.575 0-8.283-3.709-8.283-8.283v-16.567c0-4.575 3.709-8.283 8.283-8.283h24.85v-33.133h-49.7c-9.15 0-16.567 7.417-16.567 16.567v66.267c0 9.15 7.417 16.567 16.567 16.567v10.965z" fill="#ffdd40"/><path d="m413.383 289.133h-23c4.575 0 8.283 3.708 8.283 8.283v16.567c0 4.575-3.709 8.283-8.283 8.283h23c4.575 0 8.283-3.709 8.283-8.283v-16.567c.001-4.574-3.708-8.283-8.283-8.283z" fill="#1886ea"/></g><g><path d="m24.067 410.1v11.567c13.724 0 24.85 11.126 24.85 24.85s-11.126 24.85-24.85 24.85v11.567h452.433v-72.834z" fill="#e9efff"/><path d="m421.667 388.533h23.97c31.82 0 58.372 25.268 58.857 57.084.493 32.383-25.706 58.883-57.977 58.883h-24.85l-8.667-16.567 8.667-16.567h24.285c13.902 0 25.646-11.376 25.411-25.276-.228-13.507-11.286-24.424-24.846-24.424h-24.85l-7.667-16.566z" fill="#ffdd40"/><path d="m445.637 388.533h-22.992c31.82 0 58.372 25.268 58.857 57.084.493 32.383-25.706 58.883-57.977 58.883h22.992c32.271 0 58.47-26.5 57.977-58.883-.486-31.816-27.038-57.084-58.857-57.084z" fill="#ffb332"/><g><g><g><path d="m421.667 471.367h-405.883c-4.575 0-8.283 3.709-8.283 8.283v16.567c0 4.575 3.709 8.283 8.283 8.283h405.883z" fill="#4ce088"/></g><g><path d="m7.5 413.383c0 4.575 3.709 8.283 8.283 8.283h405.883v-33.133h-405.883c-4.575 0-8.283 3.709-8.283 8.283z" fill="#4ce088"/></g></g></g></g></g><path d="m445.637 381.033h-16.51c.013-.261.04-.519.04-.783v-16.567c0-8.703-7.081-15.783-15.783-15.783h-.784v-18.133h.783c8.703 0 15.783-7.08 15.783-15.783v-16.567c0-8.703-7.081-15.783-15.783-15.783h-26.416c-4.142 0-7.5 3.358-7.5 7.5s3.358 7.5 7.5 7.5h26.416c.432 0 .783.352.783.783v16.567c0 .432-.352.783-.783.783h-298.983v-18.133h242.566c4.142 0 7.5-3.358 7.5-7.5s-3.358-7.5-7.5-7.5h-11.2c.927-2.256 1.526-4.681 1.722-7.221l14.857-193.146h1.622c8.547 0 15.5-6.953 15.5-15.5v-17.134c0-8.547-6.953-15.5-15.5-15.5h-4.41l-13.638-21.821c-4.427-7.083-12.057-11.312-20.409-11.312h-122.453c-8.352 0-15.981 4.229-20.409 11.312l-13.638 21.821h-4.41c-8.547 0-15.5 6.953-15.5 15.5v17.133c0 8.547 6.953 15.5 15.5 15.5h1.621l14.857 193.146c.195 2.54.795 4.965 1.722 7.221h-125.6c-13.271 0-24.067 10.796-24.067 24.067v66.267c0 3.207.635 6.266 1.779 9.066h-19.129c-8.702 0-15.783 7.081-15.783 15.784v16.566c0 8.703 7.081 15.783 15.783 15.783h8.284c9.566 0 17.35 7.783 17.35 17.35s-7.783 17.35-17.35 17.35h-8.284c-8.702.001-15.783 7.081-15.783 15.784v16.567c0 8.703 7.081 15.783 15.783 15.783h76.117c4.142 0 7.5-3.358 7.5-7.5s-3.358-7.5-7.5-7.5h-76.117c-.432 0-.783-.351-.783-.783v-16.567c0-.432.352-.783.783-.783h365.25v18.133h-259.133c-4.142 0-7.5 3.358-7.5 7.5s3.358 7.5 7.5 7.5h324.617c17.655 0 34.219-6.945 46.639-19.556 12.416-12.606 19.106-29.277 18.837-46.941-.542-35.549-30.309-64.47-66.356-64.47zm-49.604 33.134v-18.133h17.35.783v18.133zm18.134-50.484v16.567c0 .432-.352.783-.783.783h-199.614c.013-.266.03-.531.03-.8v-17.333h199.583c.432 0 .784.351.784.783zm-281.634-33.916v18.133h-50.483c-.432 0-.783-.352-.783-.783v-16.567c0-.432.352-.783.783-.783zm66.267 50.466c0 .196 0 .523-.483.724-.119.049-.223.071-.314.076h-.013c-.27.009-.425-.143-.527-.246l-13.136-13.136c-6.153-6.154-16.167-6.155-22.321 0l-13.136 13.135c-.102.103-.257.254-.525.246h-.017c-.091-.005-.193-.027-.311-.076-.483-.2-.483-.528-.483-.724v-50.467h51.266zm-66.267-17.333v17.333c0 .269.016.534.03.8h-18.163v-18.133zm40.08 15.358c.306-.305.802-.306 1.108 0l2.775 2.775h-6.658zm224.987-30.358h-183.8v-18.133h183.8zm-59.34-149.1h-147.953l-5.218-67.833h158.389zm-146.799 15h145.645l-2.669 34.7h-140.307zm3.907-194.538c1.668-2.668 4.542-4.262 7.689-4.262h122.453c3.146 0 6.021 1.593 7.688 4.262l8.67 13.872h-155.17zm-31.268 46.505v-17.134c0-.276.224-.5.5-.5h190.791c.005 0 .01.001.016.001.005 0 .01-.001.014-.001h8.545c.276 0 .5.224.5.5v17.133c0 .276-.224.5-.5.5h-199.366c-.276.001-.5-.223-.5-.499zm183.201 15.5-2.669 34.7h-160.697l-2.669-34.7zm-151.266 191.995-.751-9.762h137.999l-.751 9.763c-.361 4.694-4.332 8.371-9.04 8.371h-118.417c-4.708-.001-8.68-3.678-9.04-8.372zm-147.902 98.705v-66.267c0-4.999 4.067-9.067 9.067-9.067h42.2v18.133h-17.35c-8.703 0-15.783 7.08-15.783 15.783v16.567c0 8.703 7.08 15.783 15.783 15.783h17.35v18.133h-42.2c-4.999.001-9.067-4.066-9.067-9.065zm-33.133 41.416v-16.566c0-.432.352-.784.783-.784h365.25v18.133h-365.25c-.431.001-.783-.351-.783-.783zm36.349 15.784h395.168c9.407 0 17.189 7.649 17.348 17.051.076 4.518-1.691 8.847-4.976 12.188-3.413 3.471-8.128 5.462-12.937 5.462h-394.603c3.202-5.018 5.067-10.969 5.067-17.35s-1.865-12.333-5.067-17.351zm344.684 49.7h18.133v18.133h-18.133zm86.435 3.052c-9.578 9.725-22.346 15.081-35.951 15.081h-17.35v-18.133h16.785c8.804 0 17.417-3.625 23.632-9.945 6.127-6.232 9.423-14.385 9.278-22.957-.296-17.533-14.806-31.798-32.346-31.798h-17.35v-18.133h16.47c27.901 0 50.94 22.294 51.357 49.698.208 13.614-4.95 26.466-14.525 36.187z"/></g></svg>