<svg height="512" viewBox="0 0 60 60" width="512" xmlns="http://www.w3.org/2000/svg"><g id="Page-1" fill="none" fill-rule="evenodd"><g id="009---Working" fill-rule="nonzero"><g id="Icons" transform="translate(1)"><path id="Shape" d="m31 36h-28l-2.81-16.84c-.0469897-.2898944.03582596-.5857898.22647287-.809174.1906469-.2233843.46985035-.3516729.76352713-.350826h25.97c.4916162-.001417.9113431.3547149.99.84z" fill="#9e9e9e"/><path id="Shape" d="m28.14 18.84c-.0786569-.4852851-.4983838-.841417-.99-.84l-3-.0000042c.4916162-.0014128.9113431.3547191.99.8400042l2.86 17.16h3z" fill="#707070"/><path id="Shape" d="m31 36v2c0 1.6568542-1.3431458 3-3 3h-22c-1.65685425 0-3-1.3431458-3-3v-2z" fill="#7f8e94"/><path id="Shape" d="m40 36v2c0 1.6568542-1.3431458 3-3 3h-9c1.6568542 0 3-1.3431458 3-3v-2z" fill="#607d8b"/><path id="Shape" d="m37 36v2c0 1.6568542-1.3431458 3-3 3h3c1.6568542 0 3-1.3431458 3-3v-2z" fill="#37474f"/><path id="Shape" d="m53.249 41h-6.5c-1.0023409-.0002503-1.849691-.7424298-1.982-1.736l-1.767-13.264h14l-1.769 13.264c-.132309.9935702-.9796591 1.7357497-1.982 1.736z" fill="#9d27b0"/><path id="Shape" d="m54 26-1.769 13.264c-.132309.9935702-.9796591 1.7357497-1.982 1.736h3c1.0023409-.0002503 1.849691-.7424298 1.982-1.736l1.769-13.264z" fill="#6a1b9a"/><path id="Shape" d="m56.82 26h-13.64c-.2938013-.0001352-.5726782-.1294648-.7625777-.3536463-.1898995-.2241816-.2716057-.5205304-.2234223-.8103537l.667-4c.0801661-.4821996.497182-.835775.986-.836h12.306c.488818.000225.9058339.3538004.986.836l.667 4c.0481834.2898233-.0335228.5861721-.2234223.8103537-.1898995.2241815-.4687764.3535111-.7625777.3536463z" fill="#ffdc00"/><path id="Shape" d="m57.139 20.836c-.0801661-.4821996-.497182-.835775-.986-.836h-3c.488818.000225.9058339.3538004.986.836l.667 4c.0481834.2898233-.0335228.5861721-.2234223.8103537-.1898995.2241815-.4687764.3535111-.7625777.3536463h3c.2938013-.0001352.5726782-.1294648.7625777-.3536463.1898995-.2241816.2716057-.5205304.2234223-.8103537z" fill="#fec108"/><path id="Shape" d="m44.9999993 20 .0000007-3.6c-.0003619-.3004978.1344274-.5852286.3670777-.7754202.2326504-.1901916.5384957-.2656796.8329223-.2055798l8 1.6c.4660347.0951286.8005727.5053558.8.981l.0000007 2z" fill="#ffeb3a"/><path id="Shape" d="m54.2 17.019-8-1.6c-.3783313-.0710302-.7633081.0853056-.985.4l5.985 1.2c.4660347.0951286.8005727.5053558.8.981v2h3.0000007l-.0000007-2c.0005727-.4756442-.3339653-.8858714-.8-.981z" fill="#fdd834"/><circle id="Oval" cx="15" cy="28" fill="#f5f5f5" r="4"/><rect id="Rectangle-path" fill="#a0522d" height="4" rx="1" width="58" y="41"/><path id="Shape" d="m57 41h-3c.5522847 0 1 .4477153 1 1v2c0 .5522847-.4477153 1-1 1h3c.5522847 0 1-.4477153 1-1v-2c0-.5522847-.4477153-1-1-1z" fill="#783e22"/><path id="Shape" d="m3 45h7v13c0 .5522847-.44771525 1-1 1h-5c-.55228475 0-1-.4477153-1-1z" fill="#91562d"/><path id="Shape" d="m48 45h7v13c0 .5522847-.4477153 1-1 1h-5c-.5522847 0-1-.4477153-1-1z" fill="#91562d"/><path id="Shape" d="m52 45v13c0 .5522847-.4477153 1-1 1h3c.5522847 0 1-.4477153 1-1v-13z" fill="#6d4122"/><path id="Rectangle-path" d="m10 45h38v7h-38z" fill="#783e22"/><g fill="#7f8e94"><path id="Shape" d="m46.563 12c-.2797097.0000048-.5466366-.1171384-.736-.323-1.0970484-1.1282918-1.0970484-2.92470821 0-4.053l.873-.951c.1906223-.17180175.2994466-.41638221.2994466-.673s-.1088243-.50119825-.2994466-.673l-.873-.951c-1.0970484-1.12829179-1.0970484-2.92470821 0-4.053.3738968-.40675769 1.0067423-.43339673 1.4135-.05949997.4067577.37389677.4333967 1.00674225.0595 1.41349997-.1906223.17180175-.2994466.41638221-.2994466.673s.1088243.50119825.2994466.673l.873.951c1.0958747 1.12837988 1.0958747 2.92362012 0 4.052l-.873.951c-.1906223.17180175-.2994466.41638221-.2994466.673s.1088243.5011982.2994466.673c.2688138.2922335.3392634.715826.1795095 1.0793366s-.5194439.5980674-.9165095.5976634z"/><path id="Shape" d="m52.563 12c-.2797097.0000048-.5466366-.1171384-.736-.323-1.0970484-1.1282918-1.0970484-2.92470821 0-4.053l.873-.951c.1906223-.17180175.2994466-.41638221.2994466-.673s-.1088243-.50119825-.2994466-.673l-.873-.951c-1.0970484-1.12829179-1.0970484-2.92470821 0-4.053.2418688-.26312611.6057409-.37722919.9545492-.29932771s.6295605.33597242.7365.677.0238196.7132016-.2180492.97632771c-.1906223.17180175-.2994466.41638221-.2994466.673s.1088243.50119825.2994466.673l.873.951c1.0958747 1.12837988 1.0958747 2.92362012 0 4.052l-.873.951c-.1906223.17180175-.2994466.41638221-.2994466.673s.1088243.5011982.2994466.673c.2688138.2922335.3392634.715826.1795095 1.0793366s-.5194439.5980674-.9165095.5976634z"/></g></g><g id="Layer_2" fill="#000" transform="translate(0 14)"><path id="Shape" d="m21 14c-.006281-2.2420708-1.5063049-4.20502472-3.668-4.8.1999171-.13509654.4367672-.20496381.678-.2.5522847-.00276142.9977614-.45271525.995-1.005s-.4527153-.99776142-1.005-.995c-1.3143422-.02044585-2.483742.83091635-2.868 2.088-2.6042414.46291393-4.3958605 2.8761061-4.0855007 5.5028987s2.6150404 4.5560004 5.2554555 4.3992497c2.640415-.1567506 4.7006539-2.3450859 4.6980452-4.9901484zm-8 0c0-1.6568542 1.3431458-3 3-3s3 1.3431458 3 3-1.3431458 3-3 3-3-1.3431458-3-3z"/><path id="Shape" d="m58 26h-.929c.0716584-.194088.1226079-.3952045.152-.6l1.7-12.738c.6679396-.4231089 1.0124721-1.2090861.871-1.987l-.666-4c-.1592064-.96671129-.995267-1.67577537-1.975-1.675h-.153v-1c-.0000036-.95306483-.6725163-1.77372276-1.607-1.961l-8-1.6c-.5876375-.11776678-1.197116.03420087-1.6606721.41407278-.4635561.3798719-.7323256.94760518-.7323279 1.54692722v2.6h-.153c-.9776938-.00012017-1.8121694.70662522-1.973 1.671l-.666 4c-.1414721.7779139.2030604 1.5638911.871 1.987l1.7 12.738c.0293921.2047955.0803416.405912.152.6h-3.487c.3592395-.6041776.5511454-1.293106.556-1.996v-2c0-.5522847-.4477153-1-1-1h-8.153l-2.72-16.321c-.1575741-.96904902-.9952243-1.68043731-1.977-1.679h-25.97c-.58838153-.00193717-1.14776503.25531039-1.52925075.7032671-.38148572.44795672-.54636495 1.0411692-.45074925 1.6217329l2.8 16.758v1.917c.00414464.7042532.19607591 1.3946535.556 2h-1.556c-1.1045695 0-2 .8954305-2 2v2c0 1.1045695.8954305 2 2 2h1v12c0 1.1045695.8954305 2 2 2h5c1.1045695 0 2-.8954305 2-2v-5h36v5c0 1.1045695.8954305 2 2 2h5c1.1045695 0 2-.8954305 2-2v-12h1c1.1045695 0 2-.8954305 2-2v-2c0-1.1045695-.8954305-2-2-2zm-11-23.6 8 1.6v1h-8zm-2.153 4.6h12.306l.668 4h-13.64zm1.913 18.132-1.617-12.132h11.714l-1.617 12.132c-.0661545.4967851-.4898296.8678748-.991.868h-6.5c-.5004093-.001126-.9229471-.371968-.989-.868zm-6.76-1.132c0 1.1045695-.8954305 2-2 2h-5.556c.3599241-.6053465.5518554-1.2957468.556-2v-1h7zm-35 0v-1h4c.55228475 0 1-.4477153 1-1s-.44771525-1-1-1h-4.153l-2.667-16h25.973l2.666 16h-16.819c-.5522847 0-1 .4477153-1 1s.4477153 1 1 1h17v1c0 1.1045695-.8954305 2-2 2h-22c-1.1045695 0-2-.8954305-2-2zm5 20h-5v-12h5zm2-7v-5h36v5zm43 7h-5v-12h5zm3-14h-56v-2h56z"/></g></g></g></svg>